<svg width="23" height="23" viewBox="0 0 23 23" fill="none" xmlns="http://www.w3.org/2000/svg">
<path d="M11.9297 0.490692C14.914 0.490692 15.2816 0.512318 16.4494 0.555569C17.5955 0.59882 18.3957 0.793449 19.1093 1.07458C19.8446 1.35571 20.4501 1.72335 21.0556 2.32886C21.6611 2.93438 22.0288 3.53989 22.3099 4.27516C22.591 4.9888 22.7857 5.78894 22.8289 6.9351C22.8722 8.10287 22.8938 8.47051 22.8938 11.4548C22.8938 14.4392 22.8722 14.8068 22.8289 15.9746C22.7857 17.1207 22.591 17.9209 22.3099 18.6345C22.0288 19.3698 21.6611 19.9753 21.0556 20.5808C20.4501 21.1863 19.8446 21.5539 19.1093 21.8351C18.3957 22.1162 17.5955 22.3108 16.4494 22.3541C15.2816 22.3973 14.914 22.419 11.9297 22.419C8.94533 22.419 8.5777 22.3973 7.40992 22.3541C6.26377 22.3108 5.46362 22.1162 4.74998 21.8351C4.01471 21.5539 3.4092 21.1863 2.80368 20.5808C2.19817 19.9753 1.83054 19.3698 1.5494 18.6345C1.26827 17.9209 1.07364 17.1207 1.03039 15.9746C0.987141 14.8068 0.965515 14.4392 0.965515 11.4548C0.965515 8.47051 0.987141 8.10287 1.03039 6.9351C1.07364 5.78894 1.26827 4.9888 1.5494 4.27516C1.83054 3.53989 2.19817 2.93438 2.80368 2.32886C3.4092 1.72335 4.01471 1.35571 4.74998 1.07458C5.46362 0.793449 6.26377 0.59882 7.40992 0.555569C8.5777 0.512318 8.94533 0.490692 11.9297 0.490692ZM11.9297 1.91798C8.81558 1.91798 8.44794 1.9396 7.23692 1.98285C6.11239 2.0261 5.48525 2.24236 5.07436 2.39374C4.01471 2.82625 3.30107 3.53989 2.86856 4.59954C2.71718 5.01043 2.50093 5.63757 2.45768 6.76209C2.41442 7.97312 2.3928 8.34076 2.3928 11.4548C2.3928 14.5689 2.41442 14.9365 2.45768 16.1476C2.50093 17.2721 2.71718 17.8992 2.86856 18.3101C3.30107 19.3698 4.01471 20.0834 5.07436 20.5159C5.48525 20.6673 6.11239 20.8836 7.23692 20.9268C8.44794 20.9701 8.81558 20.9917 11.9297 20.9917C15.0437 20.9917 15.4114 20.9701 16.6224 20.9268C17.7469 20.8836 18.3741 20.6673 18.7849 20.5159C19.8446 20.0834 20.5582 19.3698 20.9907 18.3101C21.1421 17.8992 21.3584 17.2721 21.4016 16.1476C21.4449 14.9365 21.4665 14.5689 21.4665 11.4548C21.4665 8.34076 21.4449 7.97312 21.4016 6.76209C21.3584 5.63757 21.1421 5.01043 20.9907 4.59954C20.5582 3.53989 19.8446 2.82625 18.7849 2.39374C18.3741 2.24236 17.7469 2.0261 16.6224 1.98285C15.4114 1.9396 15.0437 1.91798 11.9297 1.91798ZM11.9297 15.8448C14.3517 15.8448 16.3196 13.8769 16.3196 11.4548C16.3196 9.03277 14.3517 7.06485 11.9297 7.06485C9.5076 7.06485 7.53967 9.03277 7.53967 11.4548C7.53967 13.8769 9.5076 15.8448 11.9297 15.8448ZM11.9297 5.8322C15.0437 5.8322 17.5523 8.34076 17.5523 11.4548C17.5523 14.5689 15.0437 17.0775 11.9297 17.0775C8.81558 17.0775 6.30702 14.5689 6.30702 11.4548C6.30702 8.34076 8.81558 5.8322 11.9297 5.8322ZM19.1093 5.61594C19.1093 6.35121 18.5038 6.91347 17.7685 6.91347C17.0333 6.91347 16.471 6.35121 16.471 5.61594C16.471 4.88067 17.0333 4.27516 17.7685 4.27516C18.5038 4.27516 19.1093 4.88067 19.1093 5.61594Z" fill="white"/>
</svg>
