<svg width="46" height="46" viewBox="0 0 46 46" fill="none" xmlns="http://www.w3.org/2000/svg">
<rect x="10.707" y="20.5098" width="5" height="5" transform="rotate(-180 10.707 20.5098)" fill="#1F1F1F"/>
<rect x="15.707" y="15.5098" width="5" height="5" transform="rotate(-180 15.707 15.5098)" fill="#1F1F1F"/>
<rect x="20.707" y="10.5098" width="5" height="5" transform="rotate(-180 20.707 10.5098)" fill="#1F1F1F"/>
<rect x="25.707" y="5.50977" width="5" height="5" transform="rotate(-180 25.707 5.50977)" fill="#1F1F1F"/>
<rect x="25.707" y="45.5098" width="5" height="5" transform="rotate(-180 25.707 45.5098)" fill="#1F1F1F"/>
<rect x="20.707" y="40.5098" width="5" height="5" transform="rotate(-180 20.707 40.5098)" fill="#1F1F1F"/>
<rect x="20.707" y="40.5098" width="5" height="5" transform="rotate(-180 20.707 40.5098)" fill="#1F1F1F"/>
<rect x="10.707" y="30.5098" width="5" height="5" transform="rotate(-180 10.707 30.5098)" fill="#1F1F1F"/>
<rect x="5.70703" y="25.5098" width="5" height="5" transform="rotate(-180 5.70703 25.5098)" fill="#1F1F1F"/>
<rect x="15.707" y="35.5098" width="5" height="5" transform="rotate(-180 15.707 35.5098)" fill="#1F1F1F"/>
<line x1="45.707" y1="23.0098" x2="5.70703" y2="23.0098" stroke="#1F1F1F" stroke-width="5"/>
</svg>
