<svg width="70" height="69" viewBox="0 0 70 69" fill="none" xmlns="http://www.w3.org/2000/svg">
<g clip-path="url(#clip0_30_370)">
<path d="M0.958923 27.8552H3.61646V37.5278H8.53345V39.9809H0.958923V27.8552ZM9.70622 31.7662H12.2562V39.9755H9.70622V31.7662ZM10.9812 27.683C11.2738 27.683 11.5598 27.7698 11.8031 27.9324C12.0464 28.0949 12.236 28.326 12.348 28.5963C12.4599 28.8666 12.4892 29.1641 12.4322 29.4511C12.3751 29.738 12.2342 30.0016 12.0273 30.2085C11.8204 30.4154 11.5568 30.5563 11.2698 30.6134C10.9828 30.6705 10.6854 30.6412 10.415 30.5292C10.1447 30.4173 9.91367 30.2276 9.75111 29.9844C9.58855 29.7411 9.50179 29.455 9.50179 29.1624C9.50179 28.7701 9.65765 28.3938 9.9351 28.1164C10.2125 27.8389 10.5888 27.683 10.9812 27.683ZM22.9294 27.8552H25.4793V35.1016L28.3736 31.7554H31.4991L28.153 35.5588L31.4292 39.9809H28.2229L25.5116 35.9193H25.4793V39.9809H22.9294V27.8552ZM13.671 31.7662H16.1026V32.8905H16.1349C16.3802 32.4717 16.7342 32.1271 17.1594 31.8932C17.5847 31.6592 18.0653 31.5447 18.5503 31.5618C21.1379 31.5618 21.6114 33.2617 21.6114 35.4728V39.9809H19.0829V35.9838C19.0829 35.0316 19.0829 33.832 17.7542 33.832C16.4254 33.832 16.221 34.8702 16.221 35.9408V40.0024H13.671V31.7662Z" fill="white"/>
<path d="M36.8713 34.9113C36.8764 34.7043 36.8395 34.4984 36.7626 34.3061C36.6858 34.1139 36.5707 33.9392 36.4243 33.7928C36.2778 33.6464 36.1032 33.5313 35.9109 33.4544C35.7187 33.3776 35.5128 33.3406 35.3058 33.3458C34.86 33.3176 34.4209 33.466 34.0837 33.759C33.7464 34.0519 33.5381 34.4659 33.5036 34.9113H36.8713ZM39.0231 38.5533C38.5975 39.0633 38.0641 39.4726 37.4613 39.7517C36.8585 40.0307 36.2014 40.1726 35.5371 40.1672C32.9872 40.1672 30.9429 38.4672 30.9429 35.8258C30.9429 33.1844 32.9872 31.4898 35.5371 31.4898C37.9203 31.4898 39.4158 33.1898 39.4158 35.8258V36.6274H33.4982C33.5685 37.0834 33.802 37.4984 34.1552 37.7952C34.5085 38.0921 34.9575 38.2506 35.4188 38.2413C35.7821 38.2407 36.1395 38.1482 36.4574 37.9723C36.7754 37.7964 37.0436 37.5428 37.2371 37.2353L39.0231 38.5533ZM44.7363 33.7439C44.3199 33.731 43.9091 33.8428 43.5566 34.0648C43.2041 34.2867 42.9258 34.6089 42.7575 34.99C42.5892 35.3711 42.5384 35.7937 42.6117 36.2038C42.685 36.6139 42.8791 36.9928 43.169 37.292C43.4589 37.5911 43.8315 37.7969 44.2392 37.883C44.6468 37.9692 45.0708 37.9317 45.4569 37.7753C45.8431 37.619 46.1738 37.351 46.4068 37.0056C46.6397 36.6602 46.7642 36.2532 46.7644 35.8366C46.7872 35.5601 46.7504 35.282 46.6564 35.021C46.5625 34.76 46.4135 34.5223 46.2197 34.3239C46.0259 34.1255 45.7917 33.971 45.5329 33.8709C45.2742 33.7709 44.9971 33.7275 44.7202 33.7439M49.1315 39.9735H46.7644V38.8976C46.4687 39.292 46.0866 39.6134 45.6474 39.8372C45.2081 40.061 44.7235 40.1813 44.2306 40.1887C41.7775 40.1887 40.1636 38.4188 40.1636 35.9173C40.1636 33.6202 41.5946 31.5113 43.9294 31.5113C44.4202 31.4682 44.9143 31.5434 45.3702 31.7306C45.826 31.9178 46.2303 32.2116 46.5492 32.5873H46.5815V27.8532H49.1315V39.9735ZM67.5298 25.3086H52.8757C52.7093 25.3065 52.5441 25.3375 52.3898 25.3999C52.2355 25.4622 52.0952 25.5547 51.977 25.6719C51.8588 25.7891 51.7651 25.9286 51.7015 26.0824C51.6378 26.2361 51.6054 26.401 51.6061 26.5674V41.2808C51.6075 41.4458 51.6415 41.609 51.7061 41.7609C51.7708 41.9128 51.8647 42.0504 51.9827 42.1659C52.1007 42.2813 52.2403 42.3724 52.3935 42.4337C52.5468 42.4951 52.7106 42.5256 52.8757 42.5235H67.5298C67.6965 42.5277 67.8623 42.4989 68.0178 42.4386C68.1732 42.3782 68.315 42.2876 68.4352 42.172C68.5553 42.0564 68.6512 41.9181 68.7175 41.7651C68.7837 41.6121 68.8189 41.4475 68.8209 41.2808V26.5674C68.821 26.3994 68.7874 26.233 68.7221 26.0781C68.6569 25.9233 68.5612 25.783 68.4409 25.6657C68.3206 25.5484 68.178 25.4563 68.0215 25.395C67.865 25.3337 67.6978 25.3043 67.5298 25.3086ZM56.706 39.9789H54.156V31.7642H56.706V39.9789ZM55.431 30.6506C55.1384 30.6506 54.8524 30.5638 54.6091 30.4013C54.3658 30.2387 54.1762 30.0077 54.0642 29.7373C53.9523 29.467 53.923 29.1695 53.98 28.8826C54.0371 28.5956 54.178 28.332 54.3849 28.1251C54.5918 27.9182 54.8554 27.7773 55.1424 27.7202C55.4294 27.6631 55.7268 27.6924 55.9972 27.8044C56.2675 27.9164 56.4985 28.106 56.6611 28.3493C56.8237 28.5926 56.9104 28.8786 56.9104 29.1712C56.9104 29.5636 56.7546 29.9398 56.4771 30.2173C56.1997 30.4947 55.8234 30.6506 55.431 30.6506ZM66.2602 39.9789H63.7103V35.9872C63.7103 35.035 63.7103 33.8353 62.3869 33.8353C61.0635 33.8353 60.8537 34.8736 60.8537 35.9442V40.0058H58.3037V31.7642H60.7515V32.8939H60.7838C61.0297 32.4761 61.3841 32.1326 61.8093 31.8996C62.2344 31.6666 62.7147 31.5529 63.1992 31.5705C65.7814 31.5705 66.2602 33.2705 66.2602 35.4815V39.9789Z" fill="white"/>
</g>
<defs>
<clipPath id="clip0_30_370">
<rect width="68.8594" height="68.8594" fill="white" transform="translate(0.5 0.0251465)"/>
</clipPath>
</defs>
</svg>
