<svg width="223" height="72" viewBox="0 0 223 72" fill="none" xmlns="http://www.w3.org/2000/svg">
<g clip-path="url(#clip0_25_168)">
<rect x="2" y="2" width="219" height="68" rx="34" fill="#3B981B" stroke="black" stroke-width="4"/>
<rect x="94" y="4" width="5" height="6" fill="#60CC45"/>
<rect x="12" width="22" height="4" fill="black"/>
<rect x="189" width="20" height="5" fill="black"/>
<rect x="7" y="64" width="15" height="4" fill="black"/>
<rect x="10" y="4" width="15" height="6" fill="black"/>
<rect x="209" y="2" width="5" height="7" fill="black"/>
<rect width="11" height="5" transform="matrix(1 0 0 -1 16 72)" fill="black"/>
<rect x="209" y="59" width="5" height="5" fill="black"/>
<rect x="6" y="9" width="5" height="6" fill="black"/>
<rect x="212" y="7" width="5" height="6" fill="black"/>
<rect x="4" y="63" width="5" height="3" fill="black"/>
<rect x="14" y="67" width="5" height="5" fill="black"/>
<rect x="4" y="53" width="5" height="10" fill="black"/>
<rect x="214" y="57" width="5" height="6" fill="black"/>
<rect x="211" y="60" width="4" height="8" fill="black"/>
<rect x="207" y="60" width="4" height="10" fill="black"/>
<rect x="195" y="67" width="13" height="5" fill="black"/>
<rect x="3" y="11" width="4" height="9" fill="black"/>
<rect x="217" y="11" width="4" height="9" fill="black"/>
<rect x="1" y="47" width="4" height="10" fill="black"/>
<rect x="217" y="50" width="4" height="8" fill="black"/>
<rect y="15" width="5" height="32" fill="black"/>
<rect x="220" y="16" width="3" height="29" fill="black"/>
<rect x="182" y="4" width="10" height="7" fill="#60CC45"/>
<rect x="105" y="4" width="53" height="6" fill="#60CC45"/>
<rect x="21" y="4" width="13" height="6" fill="#60CC45"/>
<rect x="5" y="13" width="9" height="6" fill="#409954"/>
<rect x="12" y="6" width="9" height="9" fill="#409954"/>
<rect x="9" y="10" width="6" height="6" fill="#7BB555"/>
<rect x="15" y="4" width="6" height="6" fill="#7BB555"/>
<rect x="20" y="4" width="6" height="6" fill="#7BB555"/>
<rect x="4" y="16" width="5" height="6" fill="#7BB555"/>
<rect x="9" y="45" width="5" height="5" fill="#7BB555"/>
<rect x="50" y="48" width="4" height="4" fill="#7BB555"/>
<rect x="26" y="48" width="8" height="4" fill="#60CC45"/>
<rect x="44" y="48" width="6" height="4" fill="#60CC45"/>
<rect x="84" y="53" width="5" height="5" fill="#60CC45"/>
<rect x="209" y="55" width="5" height="5" fill="#356C45"/>
<rect x="208" y="48" width="7" height="7" fill="#356C45"/>
<rect x="214" y="48" width="5" height="7" fill="#356C45"/>
<rect x="211" y="55" width="5" height="5" fill="#356C45"/>
<rect x="99" y="49" width="59" height="4" fill="#60CC45"/>
<rect x="90" y="49" width="9" height="4" fill="#60CC45"/>
<rect x="158" y="49" width="15" height="3" fill="#7BB555"/>
<rect x="190" y="48" width="19" height="4" fill="#7BB555"/>
<rect x="70" y="48" width="4" height="4" fill="#22451C"/>
<rect x="173" y="49" width="5" height="3" fill="#22451C"/>
<rect x="54" y="48" width="16" height="4" fill="#60CC45"/>
<rect x="14" y="48" width="12.8" height="4" fill="#7BB555"/>
<rect x="34" y="48" width="10" height="4" fill="#7BB555"/>
<rect x="4" y="50" width="5" height="5" fill="#356C45"/>
<rect x="9" y="50" width="5" height="5" fill="#356C45"/>
<rect x="7" y="55" width="7" height="8" fill="#356C45"/>
<rect x="14" y="52" width="195" height="13" fill="#356C45"/>
<rect x="7" y="60" width="4" height="6" fill="#22451C"/>
<rect x="10" y="63" width="6" height="3" fill="#22451C"/>
<rect x="16" y="65" width="187" height="5" fill="#22451C"/>
<rect x="4" y="22" width="5" height="7" fill="#22451C"/>
<rect x="4" y="29" width="5" height="13" fill="#356C45"/>
<rect x="4" y="42" width="5" height="8" fill="#22451C"/>
<rect x="74" y="52" width="4" height="4" fill="#22451C"/>
<rect x="78" y="56" width="8" height="4" fill="#22451C"/>
<rect x="178" y="52" width="4" height="4" fill="#22451C"/>
<rect x="182" y="56" width="4" height="4" fill="#22451C"/>
<rect width="13" height="4" transform="matrix(-1 0 0 1 211 0)" fill="black"/>
<rect width="4" height="34" transform="matrix(-1 0 0 1 223 16)" fill="black"/>
<rect width="19" height="7" transform="matrix(-1 0 0 1 210 4)" fill="#60CC45"/>
<rect width="6" height="8" transform="matrix(-1 0 0 1 218 13)" fill="#60CC45"/>
<rect width="3" height="5" transform="matrix(-1 0 0 1 212 6)" fill="#60CC45"/>
<rect width="3" height="5" transform="matrix(-1 0 0 1 210 10)" fill="#409954"/>
<rect width="3" height="5" transform="matrix(-1 0 0 1 215 17)" fill="#409954"/>
<rect width="5" height="7" transform="matrix(-1 0 0 1 215 10)" fill="#7BB555"/>
<rect width="7" height="7" transform="matrix(-1 0 0 1 212 4)" fill="#7BB555"/>
<rect x="207" y="60" width="4" height="8" fill="#22451C"/>
<rect x="203" y="65" width="4" height="3" fill="#22451C"/>
<rect x="212" y="56" width="4" height="4" fill="#22451C"/>
<rect x="186" y="48" width="4" height="8" fill="#60CC45"/>
<rect x="182" y="48" width="4" height="8" fill="#409954"/>
<rect x="86" y="52" width="4" height="4" fill="#60CC45"/>
<rect x="78" y="51" width="8" height="5" fill="#409954"/>
<rect width="5" height="5" transform="matrix(-1 0 0 1 219 12)" fill="#7BB555"/>
<rect width="4" height="14" transform="matrix(-1 0 0 1 219 17)" fill="#356C45"/>
<rect width="4" height="17" transform="matrix(-1 0 0 1 219 31)" fill="#22451C"/>
<path d="M73.1653 20.32V29.28H71.8053V30.02H73.1653V36H68.0453V30.32H66.3053V36H61.1853V20.32H73.1653ZM66.3653 26H67.9853V24.52H66.3653V26ZM86.6195 20.32V24.46H79.9395V26.06H86.6195V30.26H79.9395V31.86H86.6195V36H74.7595V20.32H86.6195ZM101.439 20.32V24.46H93.2794V31.8H97.2994V28.96H101.439V36H88.0994V20.32H101.439ZM107.746 20.32V36H102.806V20.32H107.746ZM116.629 31.86V30.26H109.349V20.32H121.689V24.46H114.409V26.06H121.689V36H109.349V31.86H116.629ZM123.058 24.46V20.32H135.038V24.46H131.638V36H126.458V24.46H123.058ZM148.241 20.32V24.46H141.561V26.06H148.241V30.26H141.561V31.86H148.241V36H136.381V20.32H148.241ZM161.7 20.32V29.28H160.34V30.02H161.7V36H156.58V30.32H154.84V36H149.72V20.32H161.7ZM154.9 26H156.52V24.52H154.9V26Z" fill="#E8E8E8"/>
</g>
<defs>
<clipPath id="clip0_25_168">
<rect width="223" height="72" fill="white"/>
</clipPath>
</defs>
</svg>
