<svg width="224" height="72" viewBox="0 0 224 72" fill="none" xmlns="http://www.w3.org/2000/svg">
<g clip-path="url(#clip0_861_3452)">
<rect x="2.5" y="2" width="219" height="68" rx="34" fill="#52CD27" stroke="black" stroke-width="4"/>
<rect x="94.5" y="4" width="5" height="6" fill="#70E852"/>
<rect x="12.5" width="22" height="4" fill="black"/>
<rect x="189.5" width="20" height="5" fill="black"/>
<rect x="7.5" y="64" width="15" height="4" fill="black"/>
<rect x="10.5" y="4" width="15" height="6" fill="black"/>
<rect x="209.5" y="2" width="5" height="7" fill="black"/>
<rect width="11" height="5" transform="matrix(1 0 0 -1 16.5 72)" fill="black"/>
<rect x="209.5" y="59" width="5" height="5" fill="black"/>
<rect x="6.5" y="9" width="5" height="6" fill="black"/>
<rect x="212.5" y="7" width="5" height="6" fill="black"/>
<rect x="4.5" y="63" width="5" height="3" fill="black"/>
<rect x="14.5" y="67" width="5" height="5" fill="black"/>
<rect x="4.5" y="53" width="5" height="10" fill="black"/>
<rect x="214.5" y="57" width="5" height="6" fill="black"/>
<rect x="211.5" y="60" width="4" height="8" fill="black"/>
<rect x="207.5" y="60" width="4" height="10" fill="black"/>
<rect x="195.5" y="67" width="13" height="5" fill="black"/>
<rect x="3.5" y="11" width="4" height="9" fill="black"/>
<rect x="217.5" y="11" width="4" height="9" fill="black"/>
<rect x="1.5" y="47" width="4" height="10" fill="black"/>
<rect x="217.5" y="50" width="4" height="8" fill="black"/>
<rect x="0.5" y="15" width="5" height="32" fill="black"/>
<rect x="220.5" y="16" width="3" height="29" fill="black"/>
<rect x="182.5" y="4" width="10" height="7" fill="#70E852"/>
<rect x="105.5" y="4" width="53" height="6" fill="#70E852"/>
<rect x="21.5" y="4" width="13" height="6" fill="#70E852"/>
<rect x="5.5" y="13" width="9" height="6" fill="#52CD6D"/>
<rect x="12.5" y="6" width="9" height="9" fill="#52CD6D"/>
<rect x="9.5" y="10" width="6" height="6" fill="#A2EB73"/>
<rect x="15.5" y="4" width="6" height="6" fill="#A2EB73"/>
<rect x="20.5" y="4" width="6" height="6" fill="#A2EB73"/>
<rect x="4.5" y="16" width="5" height="6" fill="#A2EB73"/>
<rect x="9.5" y="45" width="5" height="5" fill="#A2EB73"/>
<rect x="50.5" y="48" width="4" height="4" fill="#A2EB73"/>
<rect x="26.5" y="48" width="8" height="4" fill="#70E852"/>
<rect x="44.5" y="48" width="6" height="4" fill="#70E852"/>
<rect x="84.5" y="53" width="5" height="5" fill="#70E852"/>
<rect x="209.5" y="55" width="5" height="5" fill="#4E9562"/>
<rect x="208.5" y="48" width="7" height="7" fill="#4E9562"/>
<rect x="214.5" y="48" width="5" height="7" fill="#4E9562"/>
<rect x="211.5" y="55" width="5" height="5" fill="#4E9562"/>
<rect x="99.5" y="49" width="59" height="4" fill="#70E852"/>
<rect x="90.5" y="49" width="9" height="4" fill="#70E852"/>
<rect x="158.5" y="49" width="15" height="3" fill="#A2EB73"/>
<rect x="190.5" y="48" width="19" height="4" fill="#A2EB73"/>
<rect x="70.5" y="48" width="4" height="4" fill="#2A5224"/>
<rect x="173.5" y="49" width="5" height="3" fill="#2A5224"/>
<rect x="54.5" y="48" width="16" height="4" fill="#70E852"/>
<rect x="14.5" y="48" width="12.8" height="4" fill="#A2EB73"/>
<rect x="34.5" y="48" width="10" height="4" fill="#A2EB73"/>
<rect x="4.5" y="50" width="5" height="5" fill="#4E9562"/>
<rect x="9.5" y="50" width="5" height="5" fill="#4E9562"/>
<rect x="7.5" y="55" width="7" height="8" fill="#4E9562"/>
<rect x="14.5" y="52" width="195" height="13" fill="#4E9562"/>
<rect x="7.5" y="60" width="4" height="6" fill="#2A5224"/>
<rect x="10.5" y="63" width="6" height="3" fill="#2A5224"/>
<rect x="16.5" y="65" width="187" height="5" fill="#2A5224"/>
<rect x="4.5" y="22" width="5" height="7" fill="#2A5224"/>
<rect x="4.5" y="29" width="5" height="13" fill="#4E9562"/>
<rect x="4.5" y="42" width="5" height="8" fill="#2A5224"/>
<rect x="74.5" y="52" width="4" height="4" fill="#2A5224"/>
<rect x="78.5" y="56" width="8" height="4" fill="#2A5224"/>
<rect x="178.5" y="52" width="4" height="4" fill="#2A5224"/>
<rect x="182.5" y="56" width="4" height="4" fill="#2A5224"/>
<rect width="13" height="4" transform="matrix(-1 0 0 1 211.5 0)" fill="black"/>
<rect width="4" height="34" transform="matrix(-1 0 0 1 223.5 16)" fill="black"/>
<rect width="19" height="7" transform="matrix(-1 0 0 1 210.5 4)" fill="#70E852"/>
<rect width="6" height="8" transform="matrix(-1 0 0 1 218.5 13)" fill="#70E852"/>
<rect width="3" height="5" transform="matrix(-1 0 0 1 212.5 6)" fill="#70E852"/>
<rect width="3" height="5" transform="matrix(-1 0 0 1 210.5 10)" fill="#52CD6D"/>
<rect width="3" height="5" transform="matrix(-1 0 0 1 215.5 17)" fill="#52CD6D"/>
<rect width="5" height="7" transform="matrix(-1 0 0 1 215.5 10)" fill="#A2EB73"/>
<rect width="7" height="7" transform="matrix(-1 0 0 1 212.5 4)" fill="#A2EB73"/>
<rect x="207.5" y="60" width="4" height="8" fill="#2A5224"/>
<rect x="203.5" y="65" width="4" height="3" fill="#2A5224"/>
<rect x="212.5" y="56" width="4" height="4" fill="#2A5224"/>
<rect x="186.5" y="48" width="4" height="8" fill="#70E852"/>
<rect x="182.5" y="48" width="4" height="8" fill="#52CD6D"/>
<rect x="86.5" y="52" width="4" height="4" fill="#70E852"/>
<rect x="78.5" y="51" width="8" height="5" fill="#52CD6D"/>
<rect width="5" height="5" transform="matrix(-1 0 0 1 219.5 12)" fill="#A2EB73"/>
<rect width="4" height="14" transform="matrix(-1 0 0 1 219.5 17)" fill="#4E9562"/>
<rect width="4" height="17" transform="matrix(-1 0 0 1 219.5 31)" fill="#2A5224"/>
<path d="M73.6653 20.32V29.28H72.3053V30.02H73.6653V36H68.5453V30.32H66.8053V36H61.6853V20.32H73.6653ZM66.8653 26H68.4853V24.52H66.8653V26ZM87.1195 20.32V24.46H80.4395V26.06H87.1195V30.26H80.4395V31.86H87.1195V36H75.2595V20.32H87.1195ZM101.939 20.32V24.46H93.7794V31.8H97.7994V28.96H101.939V36H88.5994V20.32H101.939ZM108.246 20.32V36H103.306V20.32H108.246ZM117.129 31.86V30.26H109.849V20.32H122.189V24.46H114.909V26.06H122.189V36H109.849V31.86H117.129ZM123.558 24.46V20.32H135.538V24.46H132.138V36H126.958V24.46H123.558ZM148.741 20.32V24.46H142.061V26.06H148.741V30.26H142.061V31.86H148.741V36H136.881V20.32H148.741ZM162.2 20.32V29.28H160.84V30.02H162.2V36H157.08V30.32H155.34V36H150.22V20.32H162.2ZM155.4 26H157.02V24.52H155.4V26Z" fill="white"/>
</g>
<defs>
<clipPath id="clip0_861_3452">
<rect width="223" height="72" fill="white" transform="translate(0.5)"/>
</clipPath>
</defs>
</svg>
