<svg width="964" height="57" viewBox="0 0 964 57" fill="none" xmlns="http://www.w3.org/2000/svg">
<path d="M43.8311 0.551997V40.8H19.1351V57H0.703063V0.551997H43.8311ZM19.3511 27.192H25.1831V13.872H19.3511V27.192ZM91.8545 0.551997V32.808H86.9585V35.472H91.8545V57H73.4225V36.552H67.1585V57H48.7265V0.551997H91.8545ZM67.3745 21H73.2065V15.672H67.3745V21ZM140.29 0.551997V15.456H116.242V21.216H140.29V36.336H116.242V42.096H140.29V57H97.5937V0.551997H140.29ZM149.433 48.36V38.136H145.185V0.551997H163.185V41.88H171.177V0.551997H189.177V38.136H184.929V48.36H178.737V57H155.625V48.36H149.433ZM212.268 0.551997V57H194.484V0.551997H212.268ZM266.927 0.551997V57H218.039V0.551997H266.927ZM236.255 41.88H248.711V15.672H236.255V41.88ZM290.672 0.551997V41.88H300.464V0.551997H318.464V57H272.672V0.551997H290.672ZM350.419 42.096V36.336H324.211V0.551997H368.635V15.456H342.427V21.216H368.635V57H324.211V42.096H350.419ZM415.536 31.44V26.112H409.56V0.551997H427.992V21H434.256V0.551997H452.688V26.112H446.64V31.44H440.88V57H422.232V31.44H415.536ZM500.219 0.551997V15.456H476.171V21.216H500.219V36.336H476.171V42.096H500.219V57H457.523V0.551997H500.219ZM548.675 0.551997V57H530.243V41.88H523.979V57H505.547V0.551997H548.675ZM520.667 29.856H523.115V26.76H531.107V29.856H533.555V20.352H530.243V16.968H523.979V20.352H520.667V29.856ZM517.067 15.672H522.899V10.344H517.067V15.672ZM531.323 15.672H537.083V10.344H531.323V15.672ZM597.542 0.551997V32.808H592.646V35.472H597.542V57H579.11V36.552H572.846V57H554.414V0.551997H597.542ZM573.062 21H578.894V15.672H573.062V21ZM682.409 0.551997V32.808H677.513V35.472H682.409V57H663.977V36.552H657.713V57H639.281V0.551997H682.409ZM657.929 21H663.761V15.672H657.929V21ZM730.844 0.551997V15.456H706.796V21.216H730.844V36.336H706.796V42.096H730.844V57H688.148V0.551997H730.844ZM739.988 48.36V38.136H735.74V0.551997H753.74V41.88H761.732V0.551997H779.732V38.136H775.484V48.36H769.292V57H746.18V48.36H739.988ZM802.823 0.551997V57H785.039V0.551997H802.823ZM851.29 0.551997V15.456H827.242V21.216H851.29V36.336H827.242V42.096H851.29V57H808.594V0.551997H851.29ZM874.617 0.551997V27.696H878.145V21H891.537V27.696H895.065V0.551997H913.065V57H895.065V51.888H889.737V45.48H879.945V51.888H874.617V57H856.617V0.551997H874.617ZM945.052 42.096V36.336H918.844V0.551997H963.268V15.456H937.06V21.216H963.268V57H918.844V42.096H945.052Z" fill="white"/>
</svg>
