<svg width="39" height="40" viewBox="0 0 39 40" fill="none" xmlns="http://www.w3.org/2000/svg">
<rect x="34.7734" width="4" height="2" fill="#DAD2B2"/>
<rect x="24.7734" y="2" width="12" height="2" fill="#DAD2B2"/>
<rect x="14.7734" y="4" width="10" height="2" fill="#DAD2B2"/>
<rect x="8.77344" y="6" width="6" height="2" fill="#DAD2B2"/>
<rect x="4.77344" y="8" width="4" height="2" fill="#DAD2B2"/>
<rect x="0.773438" y="10" width="4" height="2" fill="#DAD2B2"/>
<rect x="0.773438" y="12" width="2" height="10" fill="#DAD2B2"/>
<rect x="2.77344" y="22" width="2" height="6" fill="#DAD2B2"/>
<rect x="4.77344" y="28" width="2" height="6" fill="#DAD2B2"/>
<rect x="6.77344" y="34" width="2" height="6" fill="#DAD2B2"/>
<rect x="8.77344" y="38" width="10" height="2" fill="#DAD2B2"/>
<rect x="16.7734" y="36" width="8" height="2" fill="#DAD2B2"/>
<rect x="22.7734" y="34" width="8" height="2" fill="#DAD2B2"/>
<rect x="27.7734" y="32" width="8" height="2" fill="#DAD2B2"/>
<rect x="30.7734" y="30" width="8" height="2" fill="#DAD2B2"/>
<rect x="35.7734" y="2" width="2" height="28" fill="#BD2C68"/>
<rect x="33.7734" y="4" width="2" height="26" fill="#BD2C68"/>
<rect x="31.7734" y="4" width="2" height="26" fill="#BD2C68"/>
<rect x="27.7734" y="30" width="3" height="2" fill="#BD2C68"/>
<rect x="24.7734" y="30" width="3" height="2" fill="#FF2A4E"/>
<rect x="24.7734" y="32" width="3" height="2" fill="#FF2A4E"/>
<rect x="19.7734" y="34" width="3" height="2" fill="#BD2C68"/>
<rect x="8.77344" y="34" width="3" height="2" fill="#BD2C68"/>
<rect x="4.77344" y="10" width="3" height="2" fill="#BD2C68"/>
<rect x="8.77344" y="8" width="3" height="2" fill="#BD2C68"/>
<rect x="14.7734" y="6" width="3" height="2" fill="#BD2C68"/>
<rect x="17.7734" y="34" width="2" height="2" fill="#FF2A4E"/>
<rect x="8.77344" y="36" width="8" height="2" fill="#FF2A4E"/>
<rect x="24.7734" y="4" width="7" height="26" fill="#FF2B4E"/>
<rect x="17.7734" y="6" width="7" height="28" fill="#FF2B4E"/>
<rect x="10.7734" y="8" width="7" height="28" fill="#FF2B4E"/>
<rect x="6.77344" y="9" width="4" height="25" fill="#FF2B4E"/>
<rect x="4.77344" y="12" width="2" height="16" fill="#FF2B4E"/>
<rect x="2.77344" y="12" width="2" height="10" fill="#FF2B4E"/>
</svg>
