<svg width="352" height="1000" viewBox="0 0 352 1000" fill="none" xmlns="http://www.w3.org/2000/svg">
<rect x="317" y="34" width="4" height="2" transform="rotate(90 317 34)" fill="#DAD2B2"/>
<rect x="315" y="24" width="12" height="2" transform="rotate(90 315 24)" fill="#DAD2B2"/>
<rect x="313" y="14" width="10" height="2" transform="rotate(90 313 14)" fill="#DAD2B2"/>
<rect x="311" y="8" width="6" height="2" transform="rotate(90 311 8)" fill="#DAD2B2"/>
<rect x="309" y="4" width="4" height="2" transform="rotate(90 309 4)" fill="#DAD2B2"/>
<rect x="307" width="4" height="2" transform="rotate(90 307 0)" fill="#DAD2B2"/>
<rect x="305" width="2" height="10" transform="rotate(90 305 0)" fill="#DAD2B2"/>
<rect x="295" y="2" width="2" height="6" transform="rotate(90 295 2)" fill="#DAD2B2"/>
<rect x="289" y="4" width="2" height="6" transform="rotate(90 289 4)" fill="#DAD2B2"/>
<rect x="283" y="6" width="2" height="6" transform="rotate(90 283 6)" fill="#DAD2B2"/>
<rect x="279" y="8" width="10" height="2" transform="rotate(90 279 8)" fill="#DAD2B2"/>
<rect x="281" y="16" width="8" height="2" transform="rotate(90 281 16)" fill="#DAD2B2"/>
<rect x="283" y="22" width="8" height="2" transform="rotate(90 283 22)" fill="#DAD2B2"/>
<rect x="285" y="27" width="8" height="2" transform="rotate(90 285 27)" fill="#DAD2B2"/>
<rect x="287" y="30" width="8" height="2" transform="rotate(90 287 30)" fill="#DAD2B2"/>
<rect x="315" y="35" width="2" height="28" transform="rotate(90 315 35)" fill="#BD2C68"/>
<rect x="313" y="33" width="2" height="26" transform="rotate(90 313 33)" fill="#BD2C68"/>
<rect x="313" y="31" width="2" height="26" transform="rotate(90 313 31)" fill="#BD2C68"/>
<rect x="287" y="27" width="3" height="2" transform="rotate(90 287 27)" fill="#BD2C68"/>
<rect x="287" y="24" width="3" height="2" transform="rotate(90 287 24)" fill="#FF2A4E"/>
<rect x="285" y="24" width="3" height="2" transform="rotate(90 285 24)" fill="#FF2A4E"/>
<rect x="283" y="19" width="3" height="2" transform="rotate(90 283 19)" fill="#BD2C68"/>
<rect x="283" y="8" width="3" height="2" transform="rotate(90 283 8)" fill="#BD2C68"/>
<rect x="307" y="4" width="3" height="2" transform="rotate(90 307 4)" fill="#BD2C68"/>
<rect x="309" y="8" width="3" height="2" transform="rotate(90 309 8)" fill="#BD2C68"/>
<rect x="311" y="14" width="3" height="2" transform="rotate(90 311 14)" fill="#BD2C68"/>
<rect x="283" y="17" width="2" height="2" transform="rotate(90 283 17)" fill="#FF2A4E"/>
<rect x="281" y="8" width="8" height="2" transform="rotate(90 281 8)" fill="#FF2A4E"/>
<rect x="313" y="24" width="7" height="26" transform="rotate(90 313 24)" fill="#FF2B4E"/>
<rect x="311" y="17" width="7" height="28" transform="rotate(90 311 17)" fill="#FF2B4E"/>
<rect x="309" y="10" width="7" height="28" transform="rotate(90 309 10)" fill="#FF2B4E"/>
<rect x="308" y="6" width="4" height="25" transform="rotate(90 308 6)" fill="#FF2B4E"/>
<rect x="305" y="4" width="2" height="16" transform="rotate(90 305 4)" fill="#FF2B4E"/>
<rect x="305" y="2" width="2" height="10" transform="rotate(90 305 2)" fill="#FF2B4E"/>
<rect x="283" y="30" width="8" height="100" transform="rotate(90 283 30)" fill="#924729"/>
<rect x="183" y="32" width="6" height="93" transform="rotate(90 183 32)" fill="#924729"/>
<rect x="90" y="36" width="4" height="8" transform="rotate(90 90 36)" fill="#924729"/>
<rect x="82" y="38" width="4" height="17" transform="rotate(90 82 38)" fill="#924729"/>
<rect x="65" y="40" width="4" height="3" transform="rotate(90 65 40)" fill="#924729"/>
<rect x="62" y="42" width="4" height="1" transform="rotate(90 62 42)" fill="#924729"/>
<rect x="61" y="40" width="4" height="1" transform="rotate(90 61 40)" fill="#924729"/>
<rect x="60" y="40" width="4" height="2" transform="rotate(90 60 40)" fill="#924729"/>
<rect x="58" y="38" width="4" height="10" transform="rotate(90 58 38)" fill="#924729"/>
<rect x="48" y="36" width="4" height="20" transform="rotate(90 48 36)" fill="#924729"/>
<rect x="28" y="34" width="4" height="26" transform="rotate(90 28 34)" fill="#924729"/>
<rect x="285" y="30" width="9" height="2" transform="rotate(90 285 30)" fill="#DAD2B2"/>
<rect x="283" y="28" width="2" height="100" transform="rotate(90 283 28)" fill="#DAD2B2"/>
<rect x="183" y="30" width="2" height="93" transform="rotate(90 183 30)" fill="#DAD2B2"/>
<rect x="90" y="34" width="2" height="8" transform="rotate(90 90 34)" fill="#DAD2B2"/>
<rect x="82" y="36" width="2" height="17" transform="rotate(90 82 36)" fill="#DAD2B2"/>
<rect x="65" y="38" width="2" height="17" transform="rotate(90 65 38)" fill="#DAD2B2"/>
<rect x="90" y="32" width="2" height="2" transform="rotate(90 90 32)" fill="#DAD2B2"/>
<rect x="48" y="34" width="2" height="20" transform="rotate(90 48 34)" fill="#DAD2B2"/>
<rect x="28" y="32" width="2" height="26" transform="rotate(90 28 32)" fill="#DAD2B2"/>
<rect x="2" y="34" width="7" height="2" transform="rotate(90 2 34)" fill="#DAD2B2"/>
<rect x="50" y="36" width="4" height="2" transform="rotate(90 50 36)" fill="#DAD2B2"/>
<rect x="54.0023" y="971" width="8" height="100" transform="rotate(-90 54.0023 971)" fill="#924729"/>
<rect x="273" y="965" width="4" height="2" transform="rotate(-90 273 965)" fill="#DAD2B2"/>
<rect x="269" y="967" width="4" height="2" transform="rotate(-90 269 967)" fill="#924729"/>
<rect x="154" y="969" width="6" height="115" transform="rotate(-90 154 969)" fill="#924729"/>
<rect x="271" y="965" width="4" height="2" transform="rotate(-90 271 965)" fill="#924729"/>
<rect x="273" y="963" width="2" height="4" transform="rotate(-90 273 963)" fill="#924729"/>
<rect x="277" y="967" width="4" height="12" transform="rotate(-90 277 967)" fill="#924729"/>
<rect x="289" y="967" width="4" height="20.0001" transform="rotate(-90 289 967)" fill="#924729"/>
<rect x="309" y="967" width="4" height="26.0001" transform="rotate(-90 309 967)" fill="#924729"/>
<rect x="52" y="971" width="9" height="2.00001" transform="rotate(-90 52 971)" fill="#DAD2B2"/>
<rect x="54.0039" y="973" width="2" height="100" transform="rotate(-90 54.0039 973)" fill="#DAD2B2"/>
<rect x="54" y="963" width="1" height="217" transform="rotate(-90 54 963)" fill="#DAD2B2"/>
<rect x="154.001" y="971" width="2" height="93.0003" transform="rotate(-90 154.001 971)" fill="#DAD2B2"/>
<rect x="277" y="969" width="2" height="12" transform="rotate(-90 277 969)" fill="#DAD2B2"/>
<rect x="277" y="963" width="1" height="60" transform="rotate(-90 277 963)" fill="#DAD2B2"/>
<rect x="247" y="970" width="2" height="2.00001" transform="rotate(-90 247 970)" fill="#DAD2B2"/>
<rect x="212" y="970" width="2" height="2.00001" transform="rotate(-90 212 970)" fill="#DAD2B2"/>
<rect x="214" y="970" width="2" height="2.00001" transform="rotate(-90 214 970)" fill="#DAD2B2"/>
<rect x="216" y="970" width="2" height="2.00001" transform="rotate(-90 216 970)" fill="#DAD2B2"/>
<rect x="249" y="971" width="2" height="20" transform="rotate(-90 249 971)" fill="#DAD2B2"/>
<rect x="289" y="969" width="2" height="20.0001" transform="rotate(-90 289 969)" fill="#DAD2B2"/>
<rect x="309" y="969" width="2" height="26.0001" transform="rotate(-90 309 969)" fill="#DAD2B2"/>
<rect x="334.998" y="967" width="7" height="2.00001" transform="rotate(-90 334.998 967)" fill="#DAD2B2"/>
<rect x="275" y="967" width="4" height="2.00001" transform="rotate(-90 275 967)" fill="#DAD2B2"/>
<rect x="271" y="968" width="3" height="2" transform="rotate(-90 271 968)" fill="#DAD2B2"/>
<rect x="269" y="969" width="2" height="2" transform="rotate(-90 269 969)" fill="#DAD2B2"/>
<rect x="213" y="968" width="4" height="2" fill="#1F1F1F"/>
<rect x="215" y="970" width="4" height="2" fill="#1F1F1F"/>
<rect x="217" y="972" width="8" height="2" fill="#1F1F1F"/>
<rect x="222" y="974" width="10" height="2" fill="#1F1F1F"/>
<rect x="230" y="976" width="16" height="2" fill="#1F1F1F"/>
<rect x="244" y="978" width="12" height="2" fill="#1F1F1F"/>
<rect x="254" y="976" width="8" height="2" fill="#1F1F1F"/>
<rect x="260" y="974" width="6" height="2" fill="#1F1F1F"/>
<rect x="264" y="972" width="6" height="2" fill="#1F1F1F"/>
<rect x="268" y="970" width="6" height="2" fill="#1F1F1F"/>
<rect x="271" y="968" width="3" height="2" fill="#1F1F1F"/>
<rect x="272" y="966" width="4" height="2" fill="#1F1F1F"/>
<rect x="274" y="964" width="2" height="2" fill="#1F1F1F"/>
<rect x="229" y="966" width="4" height="2" transform="rotate(-90 229 966)" fill="#DAD2B2"/>
<rect x="231" y="976" width="12" height="2" transform="rotate(-90 231 976)" fill="#DAD2B2"/>
<rect x="233" y="986" width="10" height="2" transform="rotate(-90 233 986)" fill="#DAD2B2"/>
<rect x="235" y="992" width="6" height="2" transform="rotate(-90 235 992)" fill="#DAD2B2"/>
<rect x="237" y="996" width="4" height="2" transform="rotate(-90 237 996)" fill="#DAD2B2"/>
<rect x="239" y="1000" width="4" height="2" transform="rotate(-90 239 1000)" fill="#DAD2B2"/>
<rect x="241" y="1000" width="2" height="10" transform="rotate(-90 241 1000)" fill="#DAD2B2"/>
<rect x="251" y="998" width="2" height="6" transform="rotate(-90 251 998)" fill="#DAD2B2"/>
<rect x="257" y="996" width="2" height="6" transform="rotate(-90 257 996)" fill="#DAD2B2"/>
<rect x="263" y="994" width="2" height="6" transform="rotate(-90 263 994)" fill="#DAD2B2"/>
<rect x="267" y="992" width="10" height="2" transform="rotate(-90 267 992)" fill="#DAD2B2"/>
<rect x="265" y="984" width="8" height="2" transform="rotate(-90 265 984)" fill="#DAD2B2"/>
<rect x="263" y="978" width="8" height="2" transform="rotate(-90 263 978)" fill="#DAD2B2"/>
<rect x="261" y="973" width="8" height="2" transform="rotate(-90 261 973)" fill="#DAD2B2"/>
<rect x="259" y="970" width="8" height="2" transform="rotate(-90 259 970)" fill="#DAD2B2"/>
<rect x="231" y="965" width="2" height="28" transform="rotate(-90 231 965)" fill="#6345BD"/>
<rect x="233" y="967" width="2" height="26" transform="rotate(-90 233 967)" fill="#6345BD"/>
<rect x="233" y="969" width="2" height="26" transform="rotate(-90 233 969)" fill="#6345BD"/>
<rect x="259" y="973" width="3" height="2" transform="rotate(-90 259 973)" fill="#6345BD"/>
<rect x="259" y="976" width="3" height="2" transform="rotate(-90 259 976)" fill="#006CEF"/>
<rect x="261" y="976" width="3" height="2" transform="rotate(-90 261 976)" fill="#006CEF"/>
<rect x="263" y="981" width="3" height="2" transform="rotate(-90 263 981)" fill="#6345BD"/>
<rect x="263" y="992" width="3" height="2" transform="rotate(-90 263 992)" fill="#6345BD"/>
<rect x="239" y="996" width="3" height="2" transform="rotate(-90 239 996)" fill="#6345BD"/>
<rect x="237" y="992" width="3" height="2" transform="rotate(-90 237 992)" fill="#6345BD"/>
<rect x="235" y="986" width="3" height="2" transform="rotate(-90 235 986)" fill="#6345BD"/>
<rect x="263" y="983" width="2" height="2" transform="rotate(-90 263 983)" fill="#006CEF"/>
<rect x="265" y="992" width="8" height="2" transform="rotate(-90 265 992)" fill="#006CEF"/>
<rect x="233" y="976" width="7" height="26" transform="rotate(-90 233 976)" fill="#006CEF"/>
<rect x="235" y="983" width="7" height="28" transform="rotate(-90 235 983)" fill="#006CEF"/>
<rect x="237" y="990" width="7" height="28" transform="rotate(-90 237 990)" fill="#006CEF"/>
<rect x="238" y="994" width="4" height="25" transform="rotate(-90 238 994)" fill="#006CEF"/>
<rect x="241" y="996" width="2" height="16" transform="rotate(-90 241 996)" fill="#006CEF"/>
<rect x="241" y="998" width="2" height="10" transform="rotate(-90 241 998)" fill="#006CEF"/>
<rect x="342" y="74.7773" width="10" height="2" transform="rotate(90 342 74.7773)" fill="#451B0B"/>
<rect x="338" y="64.7773" width="2" height="4" transform="rotate(90 338 64.7773)" fill="#451B0B"/>
<rect x="338" y="66.7773" width="6" height="2" transform="rotate(90 338 66.7773)" fill="#451B0B"/>
<rect x="338" y="90.7773" width="2" height="2" transform="rotate(90 338 90.7773)" fill="#451B0B"/>
<rect x="340" y="70.7773" width="6" height="2" transform="rotate(90 340 70.7773)" fill="#451B0B"/>
<rect x="330.889" y="29.5555" width="12.2222" height="2.22222" transform="rotate(90 330.889 29.5555)" fill="#451B0B"/>
<rect x="326" y="44.7773" width="10" height="2" transform="rotate(90 326 44.7773)" fill="#451B0B"/>
<rect x="328" y="52.7773" width="6" height="2" transform="rotate(90 328 52.7773)" fill="#451B0B"/>
<rect x="330" y="56.7773" width="8" height="2" transform="rotate(90 330 56.7773)" fill="#451B0B"/>
<rect x="335" y="62.7773" width="2" height="5" transform="rotate(90 335 62.7773)" fill="#451B0B"/>
<rect x="328.667" y="26.2222" width="14.4444" height="2.22222" transform="rotate(90 328.667 26.2222)" fill="#451B0B"/>
<rect x="326.444" y="30.6666" width="6.66667" height="2.22222" transform="rotate(90 326.444 30.6666)" fill="#451B0B"/>
<rect x="333.111" y="32.8889" width="8.88889" height="2.22222" transform="rotate(90 333.111 32.8889)" fill="#451B0B"/>
<rect x="335.333" y="39.5555" width="5.55556" height="2.22222" transform="rotate(90 335.333 39.5555)" fill="#451B0B"/>
<rect x="337.556" y="41.7778" width="3.33333" height="2.22222" transform="rotate(90 337.556 41.7778)" fill="#451B0B"/>
<rect x="346.444" y="45.1111" width="2.22222" height="10" transform="rotate(90 346.444 45.1111)" fill="#451B0B"/>
<rect x="344.222" y="47.3334" width="2.22222" height="5.55556" transform="rotate(90 344.222 47.3334)" fill="#451B0B"/>
<rect x="349.778" y="42.8889" width="2.22222" height="12.2222" transform="rotate(90 349.778 42.8889)" fill="#451B0B"/>
<rect x="347.556" y="40.6666" width="2.22222" height="7.77778" transform="rotate(90 347.556 40.6666)" fill="#451B0B"/>
<rect x="345.333" y="38.4445" width="2.22222" height="5.55556" transform="rotate(90 345.333 38.4445)" fill="#451B0B"/>
<rect x="324.222" y="30.6666" width="8.88889" height="2.22222" transform="rotate(90 324.222 30.6666)" fill="#DDD3B4"/>
<rect x="326.444" y="24" width="6.66667" height="2.22222" transform="rotate(90 326.444 24)" fill="#DDD3B4"/>
<rect x="328.667" y="24" width="2.22222" height="2.22222" transform="rotate(90 328.667 24)" fill="#DDD3B4"/>
<rect x="330.889" y="26.2222" width="3.33333" height="2.22222" transform="rotate(90 330.889 26.2222)" fill="#DDD3B4"/>
<rect x="330.889" y="26.2222" width="3.33333" height="2.22222" transform="rotate(90 330.889 26.2222)" fill="#DDD3B4"/>
<rect x="333.111" y="29.5555" width="3.33333" height="2.22222" transform="rotate(90 333.111 29.5555)" fill="#DDD3B4"/>
<rect x="335.333" y="32.8889" width="6.66667" height="2.22222" transform="rotate(90 335.333 32.8889)" fill="#DDD3B4"/>
<rect x="337.556" y="35.1111" width="6.66667" height="2.22222" transform="rotate(90 337.556 35.1111)" fill="#DDD3B4"/>
<rect x="339.778" y="38.4445" width="4.44444" height="2.22222" transform="rotate(90 339.778 38.4445)" fill="#DDD3B4"/>
<rect x="344.222" y="36.2222" width="2.22222" height="4.44444" transform="rotate(90 344.222 36.2222)" fill="#DDD3B4"/>
<rect x="347.556" y="38.4445" width="2.22222" height="2.22222" transform="rotate(90 347.556 38.4445)" fill="#DDD3B4"/>
<rect x="349.778" y="40.6666" width="2.22222" height="2.22222" transform="rotate(90 349.778 40.6666)" fill="#DDD3B4"/>
<rect x="352" y="42.8889" width="2.22222" height="2.22222" transform="rotate(90 352 42.8889)" fill="#DDD3B4"/>
<rect x="352" y="45.1111" width="2.22222" height="5.55556" transform="rotate(90 352 45.1111)" fill="#DDD3B4"/>
<rect x="349.778" y="47.3334" width="2.22222" height="5.55556" transform="rotate(90 349.778 47.3334)" fill="#DDD3B4"/>
<rect x="344.222" y="49.5555" width="2.22222" height="5.55556" transform="rotate(90 344.222 49.5555)" fill="#DDD3B4"/>
<rect x="338.667" y="47.3334" width="2.22222" height="3.33333" transform="rotate(90 338.667 47.3334)" fill="#DDD3B4"/>
<rect x="337.556" y="45.1111" width="2.22222" height="2.22222" transform="rotate(90 337.556 45.1111)" fill="#DDD3B4"/>
<rect x="340" y="82.7773" width="8" height="2" transform="rotate(90 340 82.7773)" fill="#451B0B"/>
</svg>
