<svg width="957" height="648" viewBox="0 0 957 648" fill="none" xmlns="http://www.w3.org/2000/svg">
<rect x="73.7734" y="10" width="10" height="2" fill="#451B0B"/>
<rect x="63.7734" y="14" width="2" height="4" fill="#451B0B"/>
<rect x="65.7734" y="14" width="6" height="2" fill="#451B0B"/>
<rect x="89.7734" y="14" width="2" height="2" fill="#451B0B"/>
<rect x="69.7734" y="12" width="6" height="2" fill="#451B0B"/>
<rect x="28.5517" y="21.1111" width="12.2222" height="2.22222" fill="#451B0B"/>
<rect x="43.7734" y="26" width="10" height="2" fill="#451B0B"/>
<rect x="51.7734" y="24" width="6" height="2" fill="#451B0B"/>
<rect x="55.7734" y="22" width="8" height="2" fill="#451B0B"/>
<rect x="61.7734" y="17" width="2" height="5" fill="#451B0B"/>
<rect x="25.2183" y="23.3334" width="14.4444" height="2.22222" fill="#451B0B"/>
<rect x="29.6628" y="25.5555" width="6.66667" height="2.22222" fill="#451B0B"/>
<rect x="31.885" y="18.8889" width="8.88889" height="2.22222" fill="#451B0B"/>
<rect x="38.5517" y="16.6666" width="5.55556" height="2.22222" fill="#451B0B"/>
<rect x="40.7739" y="14.4445" width="3.33333" height="2.22222" fill="#451B0B"/>
<rect x="44.1072" y="5.55554" width="2.22222" height="10" fill="#451B0B"/>
<rect x="46.3294" y="7.77783" width="2.22222" height="5.55556" fill="#451B0B"/>
<rect x="41.885" y="2.22217" width="2.22222" height="12.2222" fill="#451B0B"/>
<rect x="39.6628" y="4.44446" width="2.22222" height="7.77778" fill="#451B0B"/>
<rect x="37.4405" y="6.66663" width="2.22222" height="5.55556" fill="#451B0B"/>
<rect x="29.6628" y="27.7778" width="8.88889" height="2.22222" fill="#DDD3B4"/>
<rect x="22.9961" y="25.5555" width="6.66667" height="2.22222" fill="#DDD3B4"/>
<rect x="22.9961" y="23.3334" width="2.22222" height="2.22222" fill="#DDD3B4"/>
<rect x="25.2183" y="21.1111" width="3.33333" height="2.22222" fill="#DDD3B4"/>
<rect x="25.2183" y="21.1111" width="3.33333" height="2.22222" fill="#DDD3B4"/>
<rect x="28.5517" y="18.8889" width="3.33333" height="2.22222" fill="#DDD3B4"/>
<rect x="31.885" y="16.6666" width="6.66667" height="2.22222" fill="#DDD3B4"/>
<rect x="34.1072" y="14.4445" width="6.66667" height="2.22222" fill="#DDD3B4"/>
<rect x="37.4405" y="12.2222" width="4.44444" height="2.22222" fill="#DDD3B4"/>
<rect x="35.2183" y="7.77783" width="2.22222" height="4.44444" fill="#DDD3B4"/>
<rect x="37.4405" y="4.44446" width="2.22222" height="2.22222" fill="#DDD3B4"/>
<rect x="39.6628" y="2.22217" width="2.22222" height="2.22222" fill="#DDD3B4"/>
<rect x="41.885" width="2.22222" height="2.22222" fill="#DDD3B4"/>
<rect x="44.1072" width="2.22222" height="5.55556" fill="#DDD3B4"/>
<rect x="46.3294" y="2.22217" width="2.22222" height="5.55556" fill="#DDD3B4"/>
<rect x="48.5517" y="7.77783" width="2.22222" height="5.55556" fill="#DDD3B4"/>
<rect x="46.3294" y="13.3334" width="2.22222" height="3.33333" fill="#DDD3B4"/>
<rect x="44.1072" y="14.4445" width="2.22222" height="2.22222" fill="#DDD3B4"/>
<rect x="81.7734" y="12" width="8" height="2" fill="#451B0B"/>
<rect x="29.7734" y="72" width="8" height="100" fill="#924729"/>
<rect x="31.7734" y="172" width="6" height="93" fill="#924729"/>
<rect x="35.7734" y="265" width="4" height="8" fill="#924729"/>
<rect x="37.7734" y="273" width="4" height="17" fill="#924729"/>
<rect x="39.7734" y="290" width="4" height="3" fill="#924729"/>
<rect x="41.7734" y="293" width="4" height="1" fill="#924729"/>
<rect x="39.7734" y="294" width="4" height="1" fill="#924729"/>
<rect x="39.7734" y="295" width="4" height="2" fill="#924729"/>
<rect x="37.7734" y="297" width="4" height="10" fill="#924729"/>
<rect x="35.7734" y="307" width="4" height="20" fill="#924729"/>
<rect x="33.7734" y="327" width="4" height="26" fill="#924729"/>
<rect x="29.7734" y="70" width="9" height="2" fill="#DAD2B2"/>
<rect x="27.7734" y="72" width="2" height="100" fill="#DAD2B2"/>
<rect x="29.7734" y="172" width="2" height="93" fill="#DAD2B2"/>
<rect x="33.7734" y="265" width="2" height="8" fill="#DAD2B2"/>
<rect x="35.7734" y="273" width="2" height="17" fill="#DAD2B2"/>
<rect x="37.7734" y="290" width="2" height="17" fill="#DAD2B2"/>
<rect x="31.7734" y="265" width="2" height="2" fill="#DAD2B2"/>
<rect x="33.7734" y="307" width="2" height="20" fill="#DAD2B2"/>
<rect x="31.7734" y="327" width="2" height="26" fill="#DAD2B2"/>
<rect x="33.7734" y="353" width="7" height="2" fill="#DAD2B2"/>
<rect x="35.7734" y="305" width="4" height="2" fill="#DAD2B2"/>
<rect x="673.776" y="619" width="8" height="100" transform="rotate(-90 673.776 619)" fill="#924729"/>
<rect x="888.773" y="615" width="4" height="2" transform="rotate(-90 888.773 615)" fill="#924729"/>
<rect x="773.773" y="617" width="6" height="115" transform="rotate(-90 773.773 617)" fill="#924729"/>
<rect x="890.773" y="613" width="4" height="2" transform="rotate(-90 890.773 613)" fill="#924729"/>
<rect x="892.773" y="609" width="4" height="1" transform="rotate(-90 892.773 609)" fill="#924729"/>
<rect x="893.773" y="609" width="4" height="1" transform="rotate(-90 893.773 609)" fill="#924729"/>
<rect x="894.773" y="611" width="4" height="2.00001" transform="rotate(-90 894.773 611)" fill="#924729"/>
<rect x="896.773" y="615" width="4" height="12" transform="rotate(-90 896.773 615)" fill="#924729"/>
<rect x="908.773" y="615" width="4" height="20.0001" transform="rotate(-90 908.773 615)" fill="#924729"/>
<rect x="928.773" y="615" width="4" height="26.0001" transform="rotate(-90 928.773 615)" fill="#924729"/>
<rect x="671.773" y="619" width="9" height="2.00001" transform="rotate(-90 671.773 619)" fill="#DAD2B2"/>
<rect x="673.777" y="621" width="2" height="100" transform="rotate(-90 673.777 621)" fill="#DAD2B2"/>
<rect x="673.773" y="611" width="1" height="217" transform="rotate(-90 673.773 611)" fill="#DAD2B2"/>
<rect x="773.775" y="619" width="2" height="93.0003" transform="rotate(-90 773.775 619)" fill="#DAD2B2"/>
<rect x="896.773" y="617" width="2" height="12" transform="rotate(-90 896.773 617)" fill="#DAD2B2"/>
<rect x="896.773" y="611" width="1" height="60" transform="rotate(-90 896.773 611)" fill="#DAD2B2"/>
<rect x="866.773" y="618" width="2" height="2.00001" transform="rotate(-90 866.773 618)" fill="#DAD2B2"/>
<rect x="831.773" y="618" width="2" height="2.00001" transform="rotate(-90 831.773 618)" fill="#DAD2B2"/>
<rect x="833.773" y="618" width="2" height="2.00001" transform="rotate(-90 833.773 618)" fill="#DAD2B2"/>
<rect x="835.773" y="618" width="2" height="2.00001" transform="rotate(-90 835.773 618)" fill="#DAD2B2"/>
<rect x="868.773" y="619" width="2" height="20" transform="rotate(-90 868.773 619)" fill="#DAD2B2"/>
<rect x="908.773" y="617" width="2" height="20.0001" transform="rotate(-90 908.773 617)" fill="#DAD2B2"/>
<rect x="928.773" y="617" width="2" height="26.0001" transform="rotate(-90 928.773 617)" fill="#DAD2B2"/>
<rect x="954.772" y="615" width="7" height="2.00001" transform="rotate(-90 954.772 615)" fill="#DAD2B2"/>
<rect x="894.773" y="615" width="4" height="2.00001" transform="rotate(-90 894.773 615)" fill="#DAD2B2"/>
<rect x="892.773" y="613" width="4" height="2" transform="rotate(-90 892.773 613)" fill="#DAD2B2"/>
<rect x="890.773" y="616" width="3" height="2" transform="rotate(-90 890.773 616)" fill="#DAD2B2"/>
<rect x="888.773" y="617" width="2" height="2" transform="rotate(-90 888.773 617)" fill="#DAD2B2"/>
<rect x="832.773" y="616" width="4" height="2" fill="#1F1F1F"/>
<rect x="834.773" y="618" width="4" height="2" fill="#1F1F1F"/>
<rect x="836.773" y="620" width="8" height="2" fill="#1F1F1F"/>
<rect x="841.773" y="622" width="10" height="2" fill="#1F1F1F"/>
<rect x="849.773" y="624" width="16" height="2" fill="#1F1F1F"/>
<rect x="863.773" y="626" width="12" height="2" fill="#1F1F1F"/>
<rect x="873.773" y="624" width="8" height="2" fill="#1F1F1F"/>
<rect x="879.773" y="622" width="6" height="2" fill="#1F1F1F"/>
<rect x="883.773" y="620" width="6" height="2" fill="#1F1F1F"/>
<rect x="887.773" y="618" width="6" height="2" fill="#1F1F1F"/>
<rect x="890.773" y="616" width="3" height="2" fill="#1F1F1F"/>
<rect x="891.773" y="614" width="4" height="2" fill="#1F1F1F"/>
<rect x="893.773" y="612" width="2" height="2" fill="#1F1F1F"/>
<rect x="34.7734" y="97" width="4" height="2" fill="#DAD2B2"/>
<rect x="24.7734" y="99" width="12" height="2" fill="#DAD2B2"/>
<rect x="14.7734" y="101" width="10" height="2" fill="#DAD2B2"/>
<rect x="8.77344" y="103" width="6" height="2" fill="#DAD2B2"/>
<rect x="4.77344" y="105" width="4" height="2" fill="#DAD2B2"/>
<rect x="0.773438" y="107" width="4" height="2" fill="#DAD2B2"/>
<rect x="0.773438" y="109" width="2" height="10" fill="#DAD2B2"/>
<rect x="2.77344" y="119" width="2" height="6" fill="#DAD2B2"/>
<rect x="4.77344" y="125" width="2" height="6" fill="#DAD2B2"/>
<rect x="6.77344" y="131" width="2" height="6" fill="#DAD2B2"/>
<rect x="8.77344" y="135" width="10" height="2" fill="#DAD2B2"/>
<rect x="16.7734" y="133" width="8" height="2" fill="#DAD2B2"/>
<rect x="22.7734" y="131" width="8" height="2" fill="#DAD2B2"/>
<rect x="27.7734" y="129" width="8" height="2" fill="#DAD2B2"/>
<rect x="30.7734" y="127" width="8" height="2" fill="#DAD2B2"/>
<rect x="35.7734" y="99" width="2" height="28" fill="#BD2C68"/>
<rect x="33.7734" y="101" width="2" height="26" fill="#BD2C68"/>
<rect x="31.7734" y="101" width="2" height="26" fill="#BD2C68"/>
<rect x="27.7734" y="127" width="3" height="2" fill="#BD2C68"/>
<rect x="24.7734" y="127" width="3" height="2" fill="#FF2A4E"/>
<rect x="24.7734" y="129" width="3" height="2" fill="#FF2A4E"/>
<rect x="19.7734" y="131" width="3" height="2" fill="#BD2C68"/>
<rect x="8.77344" y="131" width="3" height="2" fill="#BD2C68"/>
<rect x="4.77344" y="107" width="3" height="2" fill="#BD2C68"/>
<rect x="8.77344" y="105" width="3" height="2" fill="#BD2C68"/>
<rect x="14.7734" y="103" width="3" height="2" fill="#BD2C68"/>
<rect x="17.7734" y="131" width="2" height="2" fill="#FF2A4E"/>
<rect x="8.77344" y="133" width="8" height="2" fill="#FF2A4E"/>
<rect x="24.7734" y="101" width="7" height="26" fill="#FF2B4E"/>
<rect x="17.7734" y="103" width="7" height="28" fill="#FF2B4E"/>
<rect x="10.7734" y="105" width="7" height="28" fill="#FF2B4E"/>
<rect x="6.77344" y="106" width="4" height="25" fill="#FF2B4E"/>
<rect x="4.77344" y="109" width="2" height="16" fill="#FF2B4E"/>
<rect x="2.77344" y="109" width="2" height="10" fill="#FF2B4E"/>
<rect x="849.773" y="614" width="4" height="2" transform="rotate(-90 849.773 614)" fill="#DAD2B2"/>
<rect x="851.773" y="624" width="12" height="2" transform="rotate(-90 851.773 624)" fill="#DAD2B2"/>
<rect x="853.773" y="634" width="10" height="2" transform="rotate(-90 853.773 634)" fill="#DAD2B2"/>
<rect x="855.773" y="640" width="6" height="2" transform="rotate(-90 855.773 640)" fill="#DAD2B2"/>
<rect x="857.773" y="644" width="4" height="2" transform="rotate(-90 857.773 644)" fill="#DAD2B2"/>
<rect x="859.773" y="648" width="4" height="2" transform="rotate(-90 859.773 648)" fill="#DAD2B2"/>
<rect x="861.773" y="648" width="2" height="10" transform="rotate(-90 861.773 648)" fill="#DAD2B2"/>
<rect x="871.773" y="646" width="2" height="6" transform="rotate(-90 871.773 646)" fill="#DAD2B2"/>
<rect x="877.773" y="644" width="2" height="6" transform="rotate(-90 877.773 644)" fill="#DAD2B2"/>
<rect x="883.773" y="642" width="2" height="6" transform="rotate(-90 883.773 642)" fill="#DAD2B2"/>
<rect x="887.773" y="640" width="10" height="2" transform="rotate(-90 887.773 640)" fill="#DAD2B2"/>
<rect x="885.773" y="632" width="8" height="2" transform="rotate(-90 885.773 632)" fill="#DAD2B2"/>
<rect x="883.773" y="626" width="8" height="2" transform="rotate(-90 883.773 626)" fill="#DAD2B2"/>
<rect x="881.773" y="621" width="8" height="2" transform="rotate(-90 881.773 621)" fill="#DAD2B2"/>
<rect x="879.773" y="618" width="8" height="2" transform="rotate(-90 879.773 618)" fill="#DAD2B2"/>
<rect x="851.773" y="613" width="2" height="28" transform="rotate(-90 851.773 613)" fill="#6345BD"/>
<rect x="853.773" y="615" width="2" height="26" transform="rotate(-90 853.773 615)" fill="#6345BD"/>
<rect x="853.773" y="617" width="2" height="26" transform="rotate(-90 853.773 617)" fill="#6345BD"/>
<rect x="879.773" y="621" width="3" height="2" transform="rotate(-90 879.773 621)" fill="#6345BD"/>
<rect x="879.773" y="624" width="3" height="2" transform="rotate(-90 879.773 624)" fill="#006CEF"/>
<rect x="881.773" y="624" width="3" height="2" transform="rotate(-90 881.773 624)" fill="#006CEF"/>
<rect x="883.773" y="629" width="3" height="2" transform="rotate(-90 883.773 629)" fill="#6345BD"/>
<rect x="883.773" y="640" width="3" height="2" transform="rotate(-90 883.773 640)" fill="#6345BD"/>
<rect x="859.773" y="644" width="3" height="2" transform="rotate(-90 859.773 644)" fill="#6345BD"/>
<rect x="857.773" y="640" width="3" height="2" transform="rotate(-90 857.773 640)" fill="#6345BD"/>
<rect x="855.773" y="634" width="3" height="2" transform="rotate(-90 855.773 634)" fill="#6345BD"/>
<rect x="883.773" y="631" width="2" height="2" transform="rotate(-90 883.773 631)" fill="#006CEF"/>
<rect x="885.773" y="640" width="8" height="2" transform="rotate(-90 885.773 640)" fill="#006CEF"/>
<rect x="853.773" y="624" width="7" height="26" transform="rotate(-90 853.773 624)" fill="#006CEF"/>
<rect x="855.773" y="631" width="7" height="28" transform="rotate(-90 855.773 631)" fill="#006CEF"/>
<rect x="857.773" y="638" width="7" height="28" transform="rotate(-90 857.773 638)" fill="#006CEF"/>
<rect x="858.773" y="642" width="4" height="25" transform="rotate(-90 858.773 642)" fill="#006CEF"/>
<rect x="861.773" y="644" width="2" height="16" transform="rotate(-90 861.773 644)" fill="#006CEF"/>
<rect x="861.773" y="646" width="2" height="10" transform="rotate(-90 861.773 646)" fill="#006CEF"/>
</svg>
