<svg width="339" height="68" viewBox="0 0 339 68" fill="none" xmlns="http://www.w3.org/2000/svg">
<rect x="16.7734" width="306" height="4" fill="#BC8C61"/>
<rect x="16.7734" y="64" width="306" height="4" fill="#BC8C61"/>
<rect x="12.7734" y="52" width="4" height="16" fill="#BC8C61"/>
<rect x="12.7734" width="4" height="16" fill="#BC8C61"/>
<rect x="322.773" width="4" height="16" fill="#BC8C61"/>
<rect x="322.773" y="52" width="4" height="16" fill="#BC8C61"/>
<rect x="0.773441" y="52" width="16" height="4" fill="#BC8C61"/>
<rect x="0.773441" y="12" width="16" height="4" fill="#BC8C61"/>
<rect x="0.773441" y="12" width="16" height="4" fill="#BC8C61"/>
<rect x="4.77344" y="4" width="4" height="4" fill="#BC8C61"/>
<rect x="330.773" y="4" width="4" height="4" fill="#BC8C61"/>
<rect x="330.773" y="60" width="4" height="4" fill="#BC8C61"/>
<rect x="4.77344" y="60" width="4" height="4" fill="#BC8C61"/>
<rect x="322.773" y="12" width="16" height="4" fill="#BC8C61"/>
<rect x="322.773" y="52" width="16" height="4" fill="#BC8C61"/>
<rect x="0.773441" y="12" width="4" height="44" fill="#BC8C61"/>
<rect x="334.773" y="12" width="4" height="44" fill="#BC8C61"/>
</svg>
