<svg width="915" height="11" viewBox="0 0 915 11" fill="none" xmlns="http://www.w3.org/2000/svg">
<rect x="0.773438" y="9" width="18" height="2" fill="#451B0B"/>
<rect x="18.7734" y="8.00006" width="2" height="2" fill="#451B0B"/>
<rect x="21.7734" y="4.00006" width="2" height="2" fill="#451B0B"/>
<rect x="22.7734" y="2.00006" width="2" height="2" fill="#451B0B"/>
<rect x="24.7734" y="4.00006" width="2" height="4" fill="#451B0B"/>
<rect x="26.7734" y="7.00006" width="2" height="2" fill="#451B0B"/>
<rect x="19.7734" y="6.00006" width="2" height="2" fill="#451B0B"/>
<rect x="26.7734" y="9.00006" width="2" height="2" fill="#451B0B"/>
<rect x="28.7734" y="9.00006" width="40" height="2" fill="#451B0B"/>
<rect x="33.7734" y="6.10352e-05" width="4" height="4" fill="#BAA48B"/>
<rect x="64.7734" y="7.00006" width="4" height="2" fill="#BAA48B"/>
<rect x="68.7734" y="6.00006" width="4" height="2" fill="#BAA48B"/>
<rect x="72.7734" y="7.00006" width="4" height="2" fill="#BAA48B"/>
<rect x="76.7734" y="7.00006" width="4" height="2" fill="#BAA48B"/>
<rect x="80.7734" y="7.00006" width="4" height="2" fill="#BAA48B"/>
<rect x="147.773" y="7.00006" width="4" height="2" fill="#BAA48B"/>
<rect x="151.773" y="6.00006" width="4" height="2" fill="#BAA48B"/>
<rect x="155.773" y="7.00006" width="2" height="2" fill="#BAA48B"/>
<rect x="156.773" y="5.00006" width="2" height="2" fill="#BAA48B"/>
<rect x="157.773" y="5.00006" width="2" height="1" fill="#BAA48B"/>
<rect x="158.773" y="3.00006" width="2" height="2" fill="#BAA48B"/>
<rect x="159.773" y="5.00006" width="3" height="1" fill="#BAA48B"/>
<rect x="159.773" y="6.00006" width="2" height="1" fill="#BAA48B"/>
<rect x="161.773" y="6.00006" width="3" height="1" fill="#BAA48B"/>
<rect x="162.773" y="7.00006" width="2" height="1" fill="#BAA48B"/>
<rect x="162.773" y="8.00006" width="2" height="1" fill="#BAA48B"/>
<rect x="164.773" y="7.00006" width="6" height="2" fill="#BAA48B"/>
<rect x="408.773" y="7.00012" width="6" height="2" fill="#BAA48B"/>
<rect x="414.773" y="6.00012" width="17" height="2" fill="#BAA48B"/>
<rect x="415.773" y="8.00012" width="17" height="2" fill="#BAA48B"/>
<rect x="432.773" y="7.00012" width="17" height="2" fill="#BAA48B"/>
<rect x="444.773" y="5.00012" width="5" height="2" fill="#BAA48B"/>
<rect x="447.773" y="4.00012" width="5" height="2" fill="#BAA48B"/>
<rect x="449.773" y="3.00012" width="5" height="2" fill="#BAA48B"/>
<rect x="451.773" y="2.00012" width="5" height="2" fill="#BAA48B"/>
<rect x="456.773" y="2.00012" width="5" height="2" fill="#BAA48B"/>
<rect x="459.773" y="3.00012" width="5" height="2" fill="#BAA48B"/>
<rect x="462.773" y="4.00012" width="5" height="2" fill="#BAA48B"/>
<rect x="465.773" y="5.00012" width="5" height="2" fill="#BAA48B"/>
<rect x="468.773" y="7.00012" width="40" height="2" fill="#BAA48B"/>
<rect x="809.773" y="7.00012" width="40" height="2" fill="#BAA48B"/>
<rect x="847.773" y="5.00012" width="2" height="2" fill="#BAA48B"/>
<rect x="849.773" y="3.00012" width="2" height="2" fill="#BAA48B"/>
<rect x="851.773" y="1.00012" width="4" height="2" fill="#BAA48B"/>
<rect x="855.773" y="3.00012" width="4" height="2" fill="#BAA48B"/>
<rect x="857.773" y="5.00012" width="4" height="2" fill="#BAA48B"/>
<rect x="859.773" y="7.00012" width="55" height="2" fill="#BAA48B"/>
<rect x="156.773" y="7.00006" width="2" height="1" fill="#BAA48B"/>
<rect x="68.7734" y="8.00006" width="4" height="2" fill="#451B0B"/>
<rect x="72.7734" y="9" width="79" height="2" fill="#451B0B"/>
<rect x="151.773" y="8.00006" width="4" height="2" fill="#451B0B"/>
<rect x="157.773" y="9" width="1" height="1" fill="#451B0B"/>
<rect x="157.773" y="7" width="2" height="2" fill="#451B0B"/>
<rect x="158.773" y="5.00006" width="2" height="2" fill="#451B0B"/>
<rect x="160.773" y="7.00006" width="2" height="2" fill="#451B0B"/>
<rect x="162.773" y="8.00006" width="1" height="2" fill="#451B0B"/>
<rect x="162.773" y="9" width="1" height="2" fill="#451B0B"/>
<rect x="163.773" y="9" width="250" height="2" fill="#451B0B"/>
<rect x="155.773" y="9.00006" width="3" height="2" fill="#451B0B"/>
<rect x="413.773" y="9" width="1" height="1" fill="#451B0B"/>
<rect x="414.773" y="8" width="17" height="2" fill="#451B0B"/>
<rect x="431.773" y="10" width="1" height="1" fill="#451B0B"/>
<rect x="432.773" y="9" width="14" height="2" fill="#451B0B"/>
<rect x="449.773" y="6" width="3" height="2" fill="#451B0B"/>
<rect x="446.773" y="7" width="3" height="2" fill="#451B0B"/>
<rect x="452.773" y="5" width="3" height="2" fill="#451B0B"/>
<rect x="454.773" y="4" width="3" height="2" fill="#451B0B"/>
<rect x="457.773" y="4" width="3" height="2" fill="#451B0B"/>
<rect x="459.773" y="5" width="3" height="2" fill="#451B0B"/>
<rect x="462.773" y="6" width="3" height="2" fill="#451B0B"/>
<rect x="465.773" y="7" width="3" height="2" fill="#451B0B"/>
<rect x="468.773" y="9" width="381" height="2" fill="#451B0B"/>
<rect x="849.773" y="5" width="2" height="4" fill="#451B0B"/>
<rect x="851.773" y="3" width="4" height="2" fill="#451B0B"/>
<rect x="855.773" y="5" width="2" height="2" fill="#451B0B"/>
<rect x="857.773" y="7" width="2" height="4" fill="#451B0B"/>
<rect x="859.773" y="9" width="55" height="2" fill="#451B0B"/>
</svg>
