<svg width="11" height="920" viewBox="0 0 11 920" fill="none" xmlns="http://www.w3.org/2000/svg">
<rect x="2" width="21.4634" height="2" transform="rotate(90 2 0)" fill="#451B0B"/>
<rect x="3.00012" y="21.4634" width="1.95122" height="2" transform="rotate(90 3.00012 21.4634)" fill="#451B0B"/>
<rect x="7.00012" y="24.3903" width="1.95122" height="2" transform="rotate(90 7.00012 24.3903)" fill="#451B0B"/>
<rect x="9.00006" y="25.3658" width="1.95122" height="2" transform="rotate(90 9.00006 25.3658)" fill="#451B0B"/>
<rect x="7.00012" y="27.317" width="1.95122" height="4" transform="rotate(90 7.00012 27.317)" fill="#451B0B"/>
<rect x="4.00012" y="29.2683" width="1.95122" height="2" transform="rotate(90 4.00012 29.2683)" fill="#451B0B"/>
<rect x="5.00012" y="22.439" width="1.95122" height="2" transform="rotate(90 5.00012 22.439)" fill="#451B0B"/>
<rect x="2.00012" y="29.2683" width="1.95122" height="2" transform="rotate(90 2.00012 29.2683)" fill="#451B0B"/>
<rect x="2.00012" y="31.2195" width="39.0244" height="2" transform="rotate(90 2.00012 31.2195)" fill="#451B0B"/>
<rect x="11.0001" y="36.0975" width="3.90244" height="4" transform="rotate(90 11.0001 36.0975)" fill="#BAA48B"/>
<rect x="4.00012" y="66.3414" width="3.90244" height="2" transform="rotate(90 4.00012 66.3414)" fill="#BAA48B"/>
<rect x="5.00012" y="70.2439" width="3.90244" height="2" transform="rotate(90 5.00012 70.2439)" fill="#BAA48B"/>
<rect x="4.00012" y="74.1464" width="3.90244" height="2" transform="rotate(90 4.00012 74.1464)" fill="#BAA48B"/>
<rect x="4.00012" y="78.0488" width="3.90244" height="2" transform="rotate(90 4.00012 78.0488)" fill="#BAA48B"/>
<rect x="4.00012" y="81.9512" width="3.90244" height="2" transform="rotate(90 4.00012 81.9512)" fill="#BAA48B"/>
<rect x="4.00012" y="147.317" width="3.90244" height="2" transform="rotate(90 4.00012 147.317)" fill="#BAA48B"/>
<rect x="5.00012" y="151.219" width="3.90244" height="2" transform="rotate(90 5.00012 151.219)" fill="#BAA48B"/>
<rect x="4.00012" y="155.122" width="1.95122" height="2" transform="rotate(90 4.00012 155.122)" fill="#BAA48B"/>
<rect x="6.00012" y="156.098" width="1.95122" height="2" transform="rotate(90 6.00012 156.098)" fill="#BAA48B"/>
<rect x="6.00012" y="157.073" width="1.95122" height="1" transform="rotate(90 6.00012 157.073)" fill="#BAA48B"/>
<rect x="8.00006" y="158.049" width="1.95122" height="2" transform="rotate(90 8.00006 158.049)" fill="#BAA48B"/>
<rect x="6.00012" y="159.024" width="2.92683" height="1" transform="rotate(90 6.00012 159.024)" fill="#BAA48B"/>
<rect x="5.00012" y="159.024" width="1.95122" height="1" transform="rotate(90 5.00012 159.024)" fill="#BAA48B"/>
<rect x="5.00012" y="160.976" width="2.92683" height="1" transform="rotate(90 5.00012 160.976)" fill="#BAA48B"/>
<rect x="4.00012" y="161.951" width="1.95122" height="1" transform="rotate(90 4.00012 161.951)" fill="#BAA48B"/>
<rect x="3.00012" y="161.951" width="1.95122" height="1" transform="rotate(90 3.00012 161.951)" fill="#BAA48B"/>
<rect x="4.00012" y="163.902" width="5.85366" height="2" transform="rotate(90 4.00012 163.902)" fill="#BAA48B"/>
<rect x="4" y="401.951" width="5.85366" height="2" transform="rotate(90 4 401.951)" fill="#BAA48B"/>
<rect x="5" y="407.805" width="16.5854" height="2" transform="rotate(90 5 407.805)" fill="#BAA48B"/>
<rect x="3" y="408.781" width="16.5854" height="2" transform="rotate(90 3 408.781)" fill="#BAA48B"/>
<rect x="4" y="425.366" width="16.5854" height="2" transform="rotate(90 4 425.366)" fill="#BAA48B"/>
<rect x="6" y="437.073" width="4.87805" height="2" transform="rotate(90 6 437.073)" fill="#BAA48B"/>
<rect x="7" y="440" width="4.87805" height="2" transform="rotate(90 7 440)" fill="#BAA48B"/>
<rect x="8" y="441.951" width="4.87805" height="2" transform="rotate(90 8 441.951)" fill="#BAA48B"/>
<rect x="8.99994" y="443.902" width="4.87805" height="2" transform="rotate(90 8.99994 443.902)" fill="#BAA48B"/>
<rect x="8.99994" y="448.781" width="4.87805" height="2" transform="rotate(90 8.99994 448.781)" fill="#BAA48B"/>
<rect x="8" y="451.707" width="4.87805" height="2" transform="rotate(90 8 451.707)" fill="#BAA48B"/>
<rect x="7" y="454.634" width="4.87805" height="2" transform="rotate(90 7 454.634)" fill="#BAA48B"/>
<rect x="6" y="457.561" width="4.87805" height="2" transform="rotate(90 6 457.561)" fill="#BAA48B"/>
<rect x="4" y="460.488" width="39.0244" height="2" transform="rotate(90 4 460.488)" fill="#BAA48B"/>
<rect x="4" y="793.171" width="39.0244" height="2" transform="rotate(90 4 793.171)" fill="#BAA48B"/>
<rect x="6" y="830.244" width="1.95122" height="2" transform="rotate(90 6 830.244)" fill="#BAA48B"/>
<rect x="8" y="832.195" width="1.95122" height="2" transform="rotate(90 8 832.195)" fill="#BAA48B"/>
<rect x="9.99994" y="834.146" width="3.90244" height="2" transform="rotate(90 9.99994 834.146)" fill="#BAA48B"/>
<rect x="8" y="838.049" width="3.90244" height="2" transform="rotate(90 8 838.049)" fill="#BAA48B"/>
<rect x="6" y="840" width="3.90244" height="2" transform="rotate(90 6 840)" fill="#BAA48B"/>
<rect x="4" y="841.951" width="78.0488" height="2" transform="rotate(90 4 841.951)" fill="#BAA48B"/>
<rect x="4.00012" y="156.098" width="1.95122" height="1" transform="rotate(90 4.00012 156.098)" fill="#BAA48B"/>
<rect x="3.00012" y="70.2439" width="3.90244" height="2" transform="rotate(90 3.00012 70.2439)" fill="#451B0B"/>
<rect x="2.00012" y="74.1464" width="77.0732" height="2" transform="rotate(90 2.00012 74.1464)" fill="#451B0B"/>
<rect x="3.00012" y="151.219" width="3.90244" height="2" transform="rotate(90 3.00012 151.219)" fill="#451B0B"/>
<rect x="2.00012" y="157.073" width="0.97561" height="1" transform="rotate(90 2.00012 157.073)" fill="#451B0B"/>
<rect x="4.00012" y="157.073" width="1.95122" height="2" transform="rotate(90 4.00012 157.073)" fill="#451B0B"/>
<rect x="6.00012" y="158.049" width="1.95122" height="2" transform="rotate(90 6.00012 158.049)" fill="#451B0B"/>
<rect x="4.00012" y="160" width="1.95122" height="2" transform="rotate(90 4.00012 160)" fill="#451B0B"/>
<rect x="3.00012" y="161.951" width="0.97561" height="2" transform="rotate(90 3.00012 161.951)" fill="#451B0B"/>
<rect x="2.00012" y="161.951" width="0.97561" height="2" transform="rotate(90 2.00012 161.951)" fill="#451B0B"/>
<rect x="2.00012" y="162.927" width="243.902" height="2" transform="rotate(90 2.00012 162.927)" fill="#451B0B"/>
<rect x="2.00012" y="155.122" width="2.92683" height="2" transform="rotate(90 2.00012 155.122)" fill="#451B0B"/>
<rect x="2.00012" y="406.829" width="0.97561" height="1" transform="rotate(90 2.00012 406.829)" fill="#451B0B"/>
<rect x="3.00012" y="407.805" width="16.5854" height="2" transform="rotate(90 3.00012 407.805)" fill="#451B0B"/>
<rect x="1.00012" y="424.39" width="0.97561" height="1" transform="rotate(90 1.00012 424.39)" fill="#451B0B"/>
<rect x="2.00012" y="425.366" width="13.6585" height="2" transform="rotate(90 2.00012 425.366)" fill="#451B0B"/>
<rect x="5.00012" y="441.951" width="2.92683" height="2" transform="rotate(90 5.00012 441.951)" fill="#451B0B"/>
<rect x="4.00012" y="439.024" width="2.92683" height="2" transform="rotate(90 4.00012 439.024)" fill="#451B0B"/>
<rect x="6.00012" y="444.878" width="2.92683" height="2" transform="rotate(90 6.00012 444.878)" fill="#451B0B"/>
<rect x="7.00012" y="446.829" width="2.92683" height="2" transform="rotate(90 7.00012 446.829)" fill="#451B0B"/>
<rect x="7.00012" y="449.756" width="2.92683" height="2" transform="rotate(90 7.00012 449.756)" fill="#451B0B"/>
<rect x="6.00012" y="451.707" width="2.92683" height="2" transform="rotate(90 6.00012 451.707)" fill="#451B0B"/>
<rect x="5.00012" y="454.634" width="2.92683" height="2" transform="rotate(90 5.00012 454.634)" fill="#451B0B"/>
<rect x="4.00012" y="457.561" width="2.92683" height="2" transform="rotate(90 4.00012 457.561)" fill="#451B0B"/>
<rect x="2.00012" y="460.488" width="371.707" height="2" transform="rotate(90 2.00012 460.488)" fill="#451B0B"/>
<rect x="6.00012" y="832.195" width="1.95122" height="4" transform="rotate(90 6.00012 832.195)" fill="#451B0B"/>
<rect x="8.00006" y="834.146" width="3.90244" height="2" transform="rotate(90 8.00006 834.146)" fill="#451B0B"/>
<rect x="6.00012" y="838.049" width="1.95122" height="2" transform="rotate(90 6.00012 838.049)" fill="#451B0B"/>
<rect x="4.00012" y="840" width="1.95122" height="4" transform="rotate(90 4.00012 840)" fill="#451B0B"/>
<rect x="2.00012" y="841.951" width="78.0488" height="2" transform="rotate(90 2.00012 841.951)" fill="#451B0B"/>
</svg>
