<svg width="13" height="14" viewBox="0 0 13 14" fill="none" xmlns="http://www.w3.org/2000/svg">
<path d="M6.39465 1.46668C3.45065 1.46667 1.06665 3.85601 1.06665 6.80001C1.06665 9.74401 3.45065 12.1333 6.39465 12.1333C9.34399 12.1333 11.7333 9.74401 11.7333 6.80001C11.7333 3.85601 9.34399 1.46668 6.39465 1.46668ZM6.39998 11.0667C4.04265 11.0667 2.13332 9.15734 2.13332 6.80001C2.13332 4.44268 4.04265 2.53334 6.39999 2.53334C8.75732 2.53334 10.6667 4.44268 10.6667 6.80001C10.6667 9.15734 8.75732 11.0667 6.39998 11.0667Z" fill="black"/>
<path d="M6.66664 4.13342L5.86664 4.13342L5.86664 7.33342L8.66664 9.01342L9.06664 8.35742L6.66664 6.93342L6.66664 4.13342Z" fill="black"/>
</svg>
