<svg width="69" height="30" viewBox="0 0 69 30" fill="none" xmlns="http://www.w3.org/2000/svg">
<rect x="50.7734" y="10" width="10" height="2" fill="#451B0B"/>
<rect x="40.7734" y="14" width="2" height="4" fill="#451B0B"/>
<rect x="42.7734" y="14" width="6" height="2" fill="#451B0B"/>
<rect x="66.7734" y="14" width="2" height="2" fill="#451B0B"/>
<rect x="46.7734" y="12" width="6" height="2" fill="#451B0B"/>
<rect x="5.55165" y="21.1111" width="12.2222" height="2.22222" fill="#451B0B"/>
<rect x="20.7734" y="26" width="10" height="2" fill="#451B0B"/>
<rect x="28.7734" y="24" width="6" height="2" fill="#451B0B"/>
<rect x="32.7734" y="22" width="8" height="2" fill="#451B0B"/>
<rect x="38.7734" y="17" width="2" height="5" fill="#451B0B"/>
<rect x="2.21832" y="23.3334" width="14.4444" height="2.22222" fill="#451B0B"/>
<rect x="6.66277" y="25.5555" width="6.66667" height="2.22222" fill="#451B0B"/>
<rect x="8.88498" y="18.8889" width="8.88889" height="2.22222" fill="#451B0B"/>
<rect x="15.5517" y="16.6666" width="5.55556" height="2.22222" fill="#451B0B"/>
<rect x="17.7739" y="14.4445" width="3.33333" height="2.22222" fill="#451B0B"/>
<rect x="21.1072" y="5.55554" width="2.22222" height="10" fill="#451B0B"/>
<rect x="23.3294" y="7.77783" width="2.22222" height="5.55556" fill="#451B0B"/>
<rect x="18.885" y="2.22217" width="2.22222" height="12.2222" fill="#451B0B"/>
<rect x="16.6628" y="4.44446" width="2.22222" height="7.77778" fill="#451B0B"/>
<rect x="14.4405" y="6.66663" width="2.22222" height="5.55556" fill="#451B0B"/>
<rect x="6.66277" y="27.7778" width="8.88889" height="2.22222" fill="#DDD3B4"/>
<rect x="-0.00390625" y="25.5555" width="6.66667" height="2.22222" fill="#DDD3B4"/>
<rect x="-0.00390625" y="23.3334" width="2.22222" height="2.22222" fill="#DDD3B4"/>
<rect x="2.21832" y="21.1111" width="3.33333" height="2.22222" fill="#DDD3B4"/>
<rect x="2.21832" y="21.1111" width="3.33333" height="2.22222" fill="#DDD3B4"/>
<rect x="5.55165" y="18.8889" width="3.33333" height="2.22222" fill="#DDD3B4"/>
<rect x="8.88498" y="16.6666" width="6.66667" height="2.22222" fill="#DDD3B4"/>
<rect x="11.1072" y="14.4445" width="6.66667" height="2.22222" fill="#DDD3B4"/>
<rect x="14.4405" y="12.2222" width="4.44444" height="2.22222" fill="#DDD3B4"/>
<rect x="12.2183" y="7.77783" width="2.22222" height="4.44444" fill="#DDD3B4"/>
<rect x="14.4405" y="4.44446" width="2.22222" height="2.22222" fill="#DDD3B4"/>
<rect x="16.6628" y="2.22217" width="2.22222" height="2.22222" fill="#DDD3B4"/>
<rect x="18.885" width="2.22222" height="2.22222" fill="#DDD3B4"/>
<rect x="21.1072" width="2.22222" height="5.55556" fill="#DDD3B4"/>
<rect x="23.3294" y="2.22217" width="2.22222" height="5.55556" fill="#DDD3B4"/>
<rect x="25.5517" y="7.77783" width="2.22222" height="5.55556" fill="#DDD3B4"/>
<rect x="23.3294" y="13.3334" width="2.22222" height="3.33333" fill="#DDD3B4"/>
<rect x="21.1072" y="14.4445" width="2.22222" height="2.22222" fill="#DDD3B4"/>
<rect x="58.7734" y="12" width="8" height="2" fill="#451B0B"/>
</svg>
