<svg width="11" height="588" viewBox="0 0 11 588" fill="none" xmlns="http://www.w3.org/2000/svg">
<rect x="0.773438" y="433" width="2" height="155" fill="#451B0B"/>
<rect x="2.77344" y="420" width="2" height="13" fill="#451B0B"/>
<rect x="4.77344" y="416" width="2" height="4" fill="#451B0B"/>
<rect x="6.77344" y="414" width="2" height="2" fill="#451B0B"/>
<rect x="8.77344" y="414" width="2" height="2" fill="#451B0B"/>
<rect x="8.77344" y="412" width="2" height="2" fill="#451B0B"/>
<rect x="6.77344" y="410" width="2" height="2" fill="#451B0B"/>
<rect x="6.77344" y="408" width="2" height="2" fill="#451B0B"/>
<rect x="3.77344" y="408" width="3" height="2" fill="#451B0B"/>
<rect x="2.77344" y="333" width="2" height="75" fill="#451B0B"/>
<rect x="0.773438" y="308" width="2" height="25" fill="#451B0B"/>
<rect x="2.77344" y="288" width="2" height="20" fill="#451B0B"/>
<rect x="4.77344" y="278" width="2" height="10" fill="#451B0B"/>
<rect x="6.77344" y="275" width="2" height="3" fill="#451B0B"/>
<rect x="8.77344" y="272" width="2" height="3" fill="#451B0B"/>
<rect x="6.77344" y="269" width="2" height="3" fill="#451B0B"/>
<rect x="4.77344" y="252" width="2" height="17" fill="#451B0B"/>
<rect x="2.77344" y="245" width="2" height="7" fill="#451B0B"/>
<rect x="0.773438" y="47" width="2" height="198" fill="#451B0B"/>
<rect x="2.77344" y="43" width="2" height="4" fill="#451B0B"/>
<rect x="0.773438" y="39" width="2" height="4" fill="#451B0B"/>
<rect x="2.77344" y="35" width="2" height="4" fill="#451B0B"/>
<rect x="4.77344" y="31" width="2" height="4" fill="#451B0B"/>
<rect x="2.77344" y="29" width="2" height="4" fill="#451B0B"/>
<rect x="4.77344" y="26" width="2" height="4" fill="#451B0B"/>
<rect x="4.77344" y="9" width="2" height="17" fill="#451B0B"/>
<rect x="0.773438" width="2" height="7" fill="#451B0B"/>
<rect x="2.77344" y="7" width="2" height="2" fill="#451B0B"/>
<rect x="2.77344" y="4" width="3" height="2" fill="#451B0B"/>
</svg>
