<svg width="350" height="10" viewBox="0 0 350 10" fill="none" xmlns="http://www.w3.org/2000/svg">
<rect x="16.9999" y="2" width="2" height="10" transform="rotate(90 16.9999 2)" fill="#451B0B"/>
<rect x="7" width="2" height="7" transform="rotate(90 7 0)" fill="#451B0B"/>
<rect x="42" width="2" height="25" transform="rotate(90 42 0)" fill="#451B0B"/>
<rect x="62" y="2" width="2" height="20" transform="rotate(90 62 2)" fill="#451B0B"/>
<rect x="72" y="4" width="2" height="10" transform="rotate(90 72 4)" fill="#451B0B"/>
<rect x="75" y="6" width="2" height="3" transform="rotate(90 75 6)" fill="#451B0B"/>
<rect x="78" y="8" width="2" height="3" transform="rotate(90 78 8)" fill="#451B0B"/>
<rect x="81" y="6" width="2" height="3" transform="rotate(90 81 6)" fill="#451B0B"/>
<rect x="98" y="4" width="2" height="17" transform="rotate(90 98 4)" fill="#451B0B"/>
<rect x="105" y="2" width="2" height="7" transform="rotate(90 105 2)" fill="#451B0B"/>
<rect x="303" width="2" height="198" transform="rotate(90 303 0)" fill="#451B0B"/>
<rect x="307" y="2" width="2" height="4" transform="rotate(90 307 2)" fill="#451B0B"/>
<rect x="311" width="2" height="4" transform="rotate(90 311 0)" fill="#451B0B"/>
<rect x="315" y="2" width="2" height="4" transform="rotate(90 315 2)" fill="#451B0B"/>
<rect x="319" y="4" width="2" height="4" transform="rotate(90 319 4)" fill="#451B0B"/>
<rect x="321" y="2" width="2" height="4" transform="rotate(90 321 2)" fill="#451B0B"/>
<rect x="324" y="4" width="2" height="4" transform="rotate(90 324 4)" fill="#451B0B"/>
<rect x="341" y="4" width="2" height="17" transform="rotate(90 341 4)" fill="#451B0B"/>
<rect x="350" width="2" height="7" transform="rotate(90 350 0)" fill="#451B0B"/>
<rect x="343" y="2" width="2" height="2" transform="rotate(90 343 2)" fill="#451B0B"/>
<rect x="346" y="2" width="3" height="2" transform="rotate(90 346 2)" fill="#451B0B"/>
</svg>
