<svg width="271" height="55" viewBox="0 0 271 55" fill="none" xmlns="http://www.w3.org/2000/svg">
<rect x="12.8" y="0.400879" width="244.8" height="3.2" fill="#BC8C61"/>
<rect x="12.8" y="51.6008" width="244.8" height="3.2" fill="#BC8C61"/>
<rect x="9.59998" y="42.0009" width="3.2" height="12.8" fill="#BC8C61"/>
<rect x="9.59998" y="0.400879" width="3.2" height="12.8" fill="#BC8C61"/>
<rect x="257.6" y="0.400879" width="3.2" height="12.8" fill="#BC8C61"/>
<rect x="257.6" y="42.0009" width="3.2" height="12.8" fill="#BC8C61"/>
<rect y="42.0009" width="12.8" height="3.2" fill="#BC8C61"/>
<rect y="10.0009" width="12.8" height="3.2" fill="#BC8C61"/>
<rect y="10.0009" width="12.8" height="3.2" fill="#BC8C61"/>
<rect x="3.20001" y="3.60083" width="3.2" height="3.2" fill="#BC8C61"/>
<rect x="264" y="3.60095" width="3.2" height="3.2" fill="#BC8C61"/>
<rect x="264" y="48.4009" width="3.2" height="3.2" fill="#BC8C61"/>
<rect x="3.20001" y="48.4009" width="3.2" height="3.2" fill="#BC8C61"/>
<rect x="257.6" y="10.0009" width="12.8" height="3.2" fill="#BC8C61"/>
<rect x="257.6" y="42.0009" width="12.8" height="3.2" fill="#BC8C61"/>
<rect y="10.0009" width="3.2" height="35.2" fill="#BC8C61"/>
<rect x="267.2" y="10.0009" width="3.2" height="35.2" fill="#BC8C61"/>
</svg>
