<svg width="286" height="23" viewBox="0 0 286 23" fill="none" xmlns="http://www.w3.org/2000/svg">
<rect x="2.77579" y="14" width="8" height="100" transform="rotate(-90 2.77579 14)" fill="#924729"/>
<rect x="217.773" y="10" width="4" height="2" transform="rotate(-90 217.773 10)" fill="#924729"/>
<rect x="102.773" y="12" width="6" height="115" transform="rotate(-90 102.773 12)" fill="#924729"/>
<rect x="219.773" y="8" width="4" height="2" transform="rotate(-90 219.773 8)" fill="#924729"/>
<rect x="221.773" y="4" width="4" height="1" transform="rotate(-90 221.773 4)" fill="#924729"/>
<rect x="222.773" y="4" width="4" height="1" transform="rotate(-90 222.773 4)" fill="#924729"/>
<rect x="223.773" y="6" width="4" height="2.00001" transform="rotate(-90 223.773 6)" fill="#924729"/>
<rect x="225.773" y="10" width="4" height="12" transform="rotate(-90 225.773 10)" fill="#924729"/>
<rect x="237.773" y="10" width="4" height="20.0001" transform="rotate(-90 237.773 10)" fill="#924729"/>
<rect x="257.773" y="10" width="4" height="26.0001" transform="rotate(-90 257.773 10)" fill="#924729"/>
<rect x="0.773438" y="14" width="9" height="2.00001" transform="rotate(-90 0.773438 14)" fill="#DAD2B2"/>
<rect x="2.77734" y="16" width="2" height="100" transform="rotate(-90 2.77734 16)" fill="#DAD2B2"/>
<rect x="2.77344" y="6" width="1" height="217" transform="rotate(-90 2.77344 6)" fill="#DAD2B2"/>
<rect x="102.775" y="14" width="2" height="93.0003" transform="rotate(-90 102.775 14)" fill="#DAD2B2"/>
<rect x="225.773" y="12" width="2" height="12" transform="rotate(-90 225.773 12)" fill="#DAD2B2"/>
<rect x="225.773" y="6" width="1" height="60" transform="rotate(-90 225.773 6)" fill="#DAD2B2"/>
<rect x="195.773" y="13" width="2" height="2.00001" transform="rotate(-90 195.773 13)" fill="#DAD2B2"/>
<rect x="160.773" y="13" width="2" height="2.00001" transform="rotate(-90 160.773 13)" fill="#DAD2B2"/>
<rect x="162.773" y="13" width="2" height="2.00001" transform="rotate(-90 162.773 13)" fill="#DAD2B2"/>
<rect x="164.773" y="13" width="2" height="2.00001" transform="rotate(-90 164.773 13)" fill="#DAD2B2"/>
<rect x="197.773" y="14" width="2" height="20" transform="rotate(-90 197.773 14)" fill="#DAD2B2"/>
<rect x="237.773" y="12" width="2" height="20.0001" transform="rotate(-90 237.773 12)" fill="#DAD2B2"/>
<rect x="257.773" y="12" width="2" height="26.0001" transform="rotate(-90 257.773 12)" fill="#DAD2B2"/>
<rect x="283.772" y="10" width="7" height="2.00001" transform="rotate(-90 283.772 10)" fill="#DAD2B2"/>
<rect x="223.773" y="10" width="4" height="2.00001" transform="rotate(-90 223.773 10)" fill="#DAD2B2"/>
<rect x="221.773" y="8" width="4" height="2" transform="rotate(-90 221.773 8)" fill="#DAD2B2"/>
<rect x="219.773" y="11" width="3" height="2" transform="rotate(-90 219.773 11)" fill="#DAD2B2"/>
<rect x="217.773" y="12" width="2" height="2" transform="rotate(-90 217.773 12)" fill="#DAD2B2"/>
<rect x="161.773" y="11" width="4" height="2" fill="#1F1F1F"/>
<rect x="163.773" y="13" width="4" height="2" fill="#1F1F1F"/>
<rect x="165.773" y="15" width="8" height="2" fill="#1F1F1F"/>
<rect x="170.773" y="17" width="10" height="2" fill="#1F1F1F"/>
<rect x="178.773" y="19" width="16" height="2" fill="#1F1F1F"/>
<rect x="192.773" y="21" width="12" height="2" fill="#1F1F1F"/>
<rect x="202.773" y="19" width="8" height="2" fill="#1F1F1F"/>
<rect x="208.773" y="17" width="6" height="2" fill="#1F1F1F"/>
<rect x="212.773" y="15" width="6" height="2" fill="#1F1F1F"/>
<rect x="216.773" y="13" width="6" height="2" fill="#1F1F1F"/>
<rect x="219.773" y="11" width="3" height="2" fill="#1F1F1F"/>
<rect x="220.773" y="9" width="4" height="2" fill="#1F1F1F"/>
<rect x="222.773" y="7" width="2" height="2" fill="#1F1F1F"/>
</svg>
