<svg width="39" height="34" viewBox="0 0 39 34" fill="none" xmlns="http://www.w3.org/2000/svg">
<rect x="7" y="0.400024" width="32" height="24.8" fill="#FF2A4E"/>
<rect x="7" y="25.2001" width="3.2" height="7.2" fill="#FF2A4E"/>
<rect x="10.2" y="23.6" width="3.2" height="7.2" fill="#FF2A4E"/>
<rect x="13.4" y="22" width="3.2" height="7.2" fill="#FF2A4E"/>
<rect x="16.6" y="20.4" width="3.2" height="7.2" fill="#FF2A4E"/>
<rect x="19.8" y="18.8" width="3.2" height="7.2" fill="#FF2A4E"/>
<rect x="23" y="18.8" width="3.2" height="7.2" fill="#FF2A4E"/>
<rect x="26.2" y="20.4" width="3.2" height="7.2" fill="#FF2A4E"/>
<rect x="29.4" y="22" width="3.2" height="7.2" fill="#FF2A4E"/>
<rect x="32.6" y="23.6" width="3.2" height="7.2" fill="#FF2A4E"/>
<rect x="35.8" y="25.2001" width="3.2" height="7.2" fill="#FF2A4E"/>
<rect x="0.599976" y="5.20007" width="6.4" height="1.6" fill="#8E8A78"/>
<rect x="3.79999" y="2" width="3.2" height="1.6" fill="#8E8A78"/>
<rect x="5.40002" y="0.400024" width="1.6" height="1.6" fill="#8E8A78"/>
<rect x="2.20001" y="3.59998" width="4.8" height="1.6" fill="#8E8A78"/>
</svg>
