<svg width="11" height="918" viewBox="0 0 11 918" fill="none" xmlns="http://www.w3.org/2000/svg">
<rect x="9" y="918" width="28" height="2" transform="rotate(-90 9 918)" fill="#451B0B"/>
<rect x="8.00006" y="890.322" width="1.98733" height="2" transform="rotate(-90 8.00006 890.322)" fill="#451B0B"/>
<rect x="4.00006" y="887.343" width="1.98733" height="2" transform="rotate(-90 4.00006 887.343)" fill="#451B0B"/>
<rect x="2.00006" y="886.349" width="1.98733" height="2" transform="rotate(-90 2.00006 886.349)" fill="#451B0B"/>
<rect x="4.00006" y="884.362" width="1.98733" height="4.00001" transform="rotate(-90 4.00006 884.362)" fill="#451B0B"/>
<rect x="7.00006" y="882.374" width="1.98733" height="2" transform="rotate(-90 7.00006 882.374)" fill="#451B0B"/>
<rect x="6.00006" y="889.328" width="1.98733" height="2" transform="rotate(-90 6.00006 889.328)" fill="#451B0B"/>
<rect x="9.00006" y="882.374" width="1.98733" height="2" transform="rotate(-90 9.00006 882.374)" fill="#451B0B"/>
<rect x="9.00006" y="880.386" width="39.7466" height="2" transform="rotate(-90 9.00006 880.386)" fill="#451B0B"/>
<rect x="6.10352e-05" y="875.416" width="3.97466" height="4.00001" transform="rotate(-90 6.10352e-05 875.416)" fill="#BAA48B"/>
<rect x="7.00006" y="844.615" width="3.97466" height="2" transform="rotate(-90 7.00006 844.615)" fill="#BAA48B"/>
<rect x="6.00006" y="840.639" width="3.97466" height="2" transform="rotate(-90 6.00006 840.639)" fill="#BAA48B"/>
<rect x="7.00006" y="836.664" width="3.97466" height="2" transform="rotate(-90 7.00006 836.664)" fill="#BAA48B"/>
<rect x="7.00006" y="832.691" width="3.97466" height="2" transform="rotate(-90 7.00006 832.691)" fill="#BAA48B"/>
<rect x="7.00006" y="828.716" width="3.97466" height="2" transform="rotate(-90 7.00006 828.716)" fill="#BAA48B"/>
<rect x="7.00006" y="762.14" width="3.97466" height="2" transform="rotate(-90 7.00006 762.14)" fill="#BAA48B"/>
<rect x="6.00006" y="758.165" width="3.97466" height="2" transform="rotate(-90 6.00006 758.165)" fill="#BAA48B"/>
<rect x="7.00006" y="754.192" width="1.98733" height="2" transform="rotate(-90 7.00006 754.192)" fill="#BAA48B"/>
<rect x="5.00006" y="753.199" width="1.98733" height="2" transform="rotate(-90 5.00006 753.199)" fill="#BAA48B"/>
<rect x="5.00006" y="752.205" width="1.98733" height="1" transform="rotate(-90 5.00006 752.205)" fill="#BAA48B"/>
<rect x="3.00006" y="751.211" width="1.98733" height="2" transform="rotate(-90 3.00006 751.211)" fill="#BAA48B"/>
<rect x="5.00006" y="750.217" width="2.98099" height="1" transform="rotate(-90 5.00006 750.217)" fill="#BAA48B"/>
<rect x="6.00006" y="750.217" width="1.98733" height="1" transform="rotate(-90 6.00006 750.217)" fill="#BAA48B"/>
<rect x="6.00006" y="748.229" width="2.98099" height="1" transform="rotate(-90 6.00006 748.229)" fill="#BAA48B"/>
<rect x="7.00006" y="747.235" width="1.98733" height="1" transform="rotate(-90 7.00006 747.235)" fill="#BAA48B"/>
<rect x="8.00006" y="747.235" width="1.98733" height="1" transform="rotate(-90 8.00006 747.235)" fill="#BAA48B"/>
<rect x="7.00006" y="745.247" width="5.96199" height="2" transform="rotate(-90 7.00006 745.247)" fill="#BAA48B"/>
<rect x="7.00012" y="502.792" width="5.96199" height="2" transform="rotate(-90 7.00012 502.792)" fill="#BAA48B"/>
<rect x="6.00012" y="496.833" width="16.8923" height="2" transform="rotate(-90 6.00012 496.833)" fill="#BAA48B"/>
<rect x="8.00012" y="495.839" width="16.8923" height="2" transform="rotate(-90 8.00012 495.839)" fill="#BAA48B"/>
<rect x="7.00012" y="478.945" width="16.8923" height="2" transform="rotate(-90 7.00012 478.945)" fill="#BAA48B"/>
<rect x="5.00012" y="467.022" width="4.96832" height="2" transform="rotate(-90 5.00012 467.022)" fill="#BAA48B"/>
<rect x="4.00012" y="464.04" width="4.96832" height="2" transform="rotate(-90 4.00012 464.04)" fill="#BAA48B"/>
<rect x="3.00012" y="462.052" width="4.96832" height="2" transform="rotate(-90 3.00012 462.052)" fill="#BAA48B"/>
<rect x="2.00012" y="460.068" width="4.96832" height="2" transform="rotate(-90 2.00012 460.068)" fill="#BAA48B"/>
<rect x="2.00012" y="455.098" width="4.96832" height="2" transform="rotate(-90 2.00012 455.098)" fill="#BAA48B"/>
<rect x="3.00012" y="452.116" width="4.96832" height="2" transform="rotate(-90 3.00012 452.116)" fill="#BAA48B"/>
<rect x="4.00012" y="449.135" width="4.96832" height="2" transform="rotate(-90 4.00012 449.135)" fill="#BAA48B"/>
<rect x="5.00012" y="446.156" width="4.96832" height="2" transform="rotate(-90 5.00012 446.156)" fill="#BAA48B"/>
<rect x="7.00012" y="443.175" width="39.7466" height="2" transform="rotate(-90 7.00012 443.175)" fill="#BAA48B"/>
<rect x="7.00012" y="104.334" width="39.7466" height="2" transform="rotate(-90 7.00012 104.334)" fill="#BAA48B"/>
<rect x="5.00012" y="66.5751" width="1.98733" height="2" transform="rotate(-90 5.00012 66.5751)" fill="#BAA48B"/>
<rect x="3.00012" y="64.5873" width="1.98733" height="2" transform="rotate(-90 3.00012 64.5873)" fill="#BAA48B"/>
<rect x="1.00012" y="62.5994" width="3.97466" height="2" transform="rotate(-90 1.00012 62.5994)" fill="#BAA48B"/>
<rect x="3.00012" y="58.6272" width="3.97466" height="2" transform="rotate(-90 3.00012 58.6272)" fill="#BAA48B"/>
<rect x="5.00012" y="56.6394" width="3.97466" height="2" transform="rotate(-90 5.00012 56.6394)" fill="#BAA48B"/>
<rect x="7.00012" y="54.6515" width="54.6515" height="2" transform="rotate(-90 7.00012 54.6515)" fill="#BAA48B"/>
<rect x="7.00006" y="753.199" width="1.98733" height="1" transform="rotate(-90 7.00006 753.199)" fill="#BAA48B"/>
<rect x="8.00006" y="840.639" width="3.97466" height="2" transform="rotate(-90 8.00006 840.639)" fill="#451B0B"/>
<rect x="9.00006" y="836.664" width="78.4995" height="2" transform="rotate(-90 9.00006 836.664)" fill="#451B0B"/>
<rect x="8.00006" y="758.165" width="3.97466" height="2" transform="rotate(-90 8.00006 758.165)" fill="#451B0B"/>
<rect x="9.00006" y="752.205" width="0.993664" height="1" transform="rotate(-90 9.00006 752.205)" fill="#451B0B"/>
<rect x="7.00006" y="752.205" width="1.98733" height="2" transform="rotate(-90 7.00006 752.205)" fill="#451B0B"/>
<rect x="5.00006" y="751.211" width="1.98733" height="2" transform="rotate(-90 5.00006 751.211)" fill="#451B0B"/>
<rect x="7.00006" y="749.223" width="1.98733" height="2" transform="rotate(-90 7.00006 749.223)" fill="#451B0B"/>
<rect x="8.00006" y="747.235" width="0.993664" height="2" transform="rotate(-90 8.00006 747.235)" fill="#451B0B"/>
<rect x="9.00006" y="747.235" width="0.993664" height="2" transform="rotate(-90 9.00006 747.235)" fill="#451B0B"/>
<rect x="9.00006" y="746.241" width="248.416" height="2" transform="rotate(-90 9.00006 746.241)" fill="#451B0B"/>
<rect x="9.00006" y="754.192" width="2.98099" height="2" transform="rotate(-90 9.00006 754.192)" fill="#451B0B"/>
<rect x="9.00012" y="497.826" width="0.993664" height="1" transform="rotate(-90 9.00012 497.826)" fill="#451B0B"/>
<rect x="8.00012" y="496.833" width="16.8923" height="2" transform="rotate(-90 8.00012 496.833)" fill="#451B0B"/>
<rect x="10.0001" y="479.939" width="0.993664" height="1" transform="rotate(-90 10.0001 479.939)" fill="#451B0B"/>
<rect x="9.00012" y="478.945" width="13.9113" height="2" transform="rotate(-90 9.00012 478.945)" fill="#451B0B"/>
<rect x="6.00012" y="462.052" width="2.98099" height="2" transform="rotate(-90 6.00012 462.052)" fill="#451B0B"/>
<rect x="7.00012" y="465.034" width="2.98099" height="2" transform="rotate(-90 7.00012 465.034)" fill="#451B0B"/>
<rect x="5.00012" y="459.074" width="2.98099" height="2" transform="rotate(-90 5.00012 459.074)" fill="#451B0B"/>
<rect x="4.00012" y="457.086" width="2.98099" height="2" transform="rotate(-90 4.00012 457.086)" fill="#451B0B"/>
<rect x="4.00012" y="454.104" width="2.98099" height="2" transform="rotate(-90 4.00012 454.104)" fill="#451B0B"/>
<rect x="5.00012" y="452.116" width="2.98099" height="2" transform="rotate(-90 5.00012 452.116)" fill="#451B0B"/>
<rect x="6.00012" y="449.135" width="2.98099" height="2" transform="rotate(-90 6.00012 449.135)" fill="#451B0B"/>
<rect x="7.00012" y="446.156" width="2.98099" height="2" transform="rotate(-90 7.00012 446.156)" fill="#451B0B"/>
<rect x="9.00012" y="443.175" width="378.586" height="2" transform="rotate(-90 9.00012 443.175)" fill="#451B0B"/>
<rect x="5.00012" y="64.5873" width="1.98733" height="4.00001" transform="rotate(-90 5.00012 64.5873)" fill="#451B0B"/>
<rect x="3.00012" y="62.5994" width="3.97466" height="2" transform="rotate(-90 3.00012 62.5994)" fill="#451B0B"/>
<rect x="5.00012" y="58.6272" width="1.98733" height="2" transform="rotate(-90 5.00012 58.6272)" fill="#451B0B"/>
<rect x="7.00012" y="56.6394" width="1.98733" height="4.00001" transform="rotate(-90 7.00012 56.6394)" fill="#451B0B"/>
<rect x="9.00012" y="54.6515" width="54.6515" height="2" transform="rotate(-90 9.00012 54.6515)" fill="#451B0B"/>
</svg>
